<?xml version="1.0" standalone="no"?>
<!DOCTYPE svg PUBLIC "-//W3C//DTD SVG 1.1//EN" "http://www.w3.org/Graphics/SVG/1.1/DTD/svg11.dtd" >
<svg xmlns="http://www.w3.org/2000/svg" xmlns:xlink="http://www.w3.org/1999/xlink" version="1.1">
<metadata>
Created by Christoph Koeberlin (http://christoph.koe.berlin)
Copyright (c) 2018 Swiss Typefaces Sarl. All rights reserved.
</metadata>
<defs>
<font id="Font" horiz-adv-x="643" >
  <font-face 
    font-family="Font"
    font-weight="900"
    font-stretch="normal"
    units-per-em="1000"
    panose-1="2 7 10 4 9 0 0 0 0 4"
    ascent="800"
    descent="-200"
    x-height="501"
    cap-height="712"
    bbox="-243 -287 1189 823"
    underline-thickness="10"
    underline-position="-149"
    unicode-range="U+0020-2022"
  />
<missing-glyph horiz-adv-x="620" 
d="M560 0h-500v758h500v-758zM527 739h-434l217 -343zM300 379l-221 349v-698zM541 728l-220 -349l220 -349v698zM310 362l-217 -343h434z" />
    <glyph glyph-name="f_i.liga" unicode="fi" 
d="M268 491v-287q0 -129 10 -160t40 -40v-4h-291v4q24 9 32 40t8 160v287h-129v10h129v24q0 50 3 82.5t10 57.5q16 56 61 90t105 34q46 0 82 -20.5t53 -56.5q15 29 42.5 46.5t60.5 17.5q48 0 82 -34t34 -82q0 -47 -34 -81t-82 -34q-31 0 -57.5 15.5t-42.5 42.5
q-13 -27 -37.5 -42t-55.5 -15q-51 0 -81.5 30.5t-30.5 79.5q0 23 8.5 43.5t32.5 48.5q10 10 12.5 14.5t2.5 7.5q0 4 -3 6.5t-9 2.5q-49 0 -92 -43t-43 -100q0 -61 38.5 -98t106.5 -37h356v-297q0 -129 8 -160t32 -40v-4h-281v4q24 9 32 40t8 160v37q0 104 -7 127t-33 38v4
q65 10 121.5 30.5t104.5 50.5h-306z" />
    <glyph glyph-name="f_l.liga" unicode="fl" 
d="M268 491v-287q0 -129 10 -160t40 -40v-4h-291v4q24 9 32 40t8 160v287h-129v10h129v24q0 50 3 82.5t10 57.5q16 56 61 90t105 34q56 0 96 -29t50 -78q47 15 98.5 46t98.5 73v-597q0 -129 8 -160t32 -40v-4h-281v4q24 9 32 40t8 160v287h-120zM88 636q0 -61 38.5 -98
t106.5 -37h155v111q-11 -31 -37 -48.5t-60 -17.5q-51 0 -81.5 30.5t-30.5 79.5q0 23 8.5 43.5t32.5 48.5q10 10 12.5 14.5t2.5 7.5q0 4 -3 6.5t-9 2.5q-49 0 -92 -43t-43 -100z" />
    <glyph glyph-name=".notdef" horiz-adv-x="620" 
d="M560 0h-500v758h500v-758zM527 739h-434l217 -343zM300 379l-221 349v-698zM541 728l-220 -349l220 -349v698zM310 362l-217 -343h434z" />
    <glyph glyph-name="glyph1" horiz-adv-x="847" 
d="M19 708v4h328q232 0 355 -89t123 -261q0 -179 -118.5 -270.5t-349.5 -91.5h-338v4q51 12 70.5 54.5t19.5 145.5v304q0 103 -19.5 145.5t-70.5 54.5zM588 362q0 168 -66 256.5t-193 88.5v-702q128 0 193.5 90.5t65.5 266.5zM455 365h-443v10h443v-10z" />
    <glyph glyph-name="glyph2" horiz-adv-x="615" 
d="M598 312q0 -147 -83 -236t-211 -89q-132 0 -211 75t-79 200q0 54 16.5 100.5t48.5 81.5q34 38 80 59.5t94 21.5q35 0 63 -8.5t44 -24.5q-14 54 -36.5 101t-52.5 84l-139 -69l-4 7l138 69q-33 39 -73.5 66t-86.5 42l1 3q60 -15 113.5 -36.5t100.5 -47.5l132 66l4 -7
l-127 -63q128 -74 198 -176.5t70 -218.5zM326 490q-40 0 -63 -65t-23 -179q0 -132 15.5 -191t49.5 -59q37 0 58.5 77.5t21.5 219.5q0 52 -5.5 99.5t-17.5 91.5q-7 3 -17.5 4.5t-18.5 1.5z" />
    <glyph glyph-name="glyph3" horiz-adv-x="741" 
d="M336 508v-503q119 0 218.5 122t156.5 345h7l-22 -472h-670v4q51 12 70.5 54.5t19.5 145.5v304q0 103 -19.5 145.5t-70.5 54.5v4h400v-4q-51 -12 -70.5 -54.5t-19.5 -145.5zM473 534l-487 -382v13l487 382v-13z" />
    <glyph glyph-name="space" unicode=" " horiz-adv-x="172" 
 />
    <glyph glyph-name="comma" unicode="," horiz-adv-x="269" 
d="M18 99q0 46 34 77.5t84 31.5q49 0 80.5 -36.5t31.5 -95.5q0 -61 -55 -133t-147 -133l-4 7q53 38 83.5 74.5t30.5 63.5q0 15 -10 25.5t-44 21.5q-51 18 -67.5 40t-16.5 57z" />
    <glyph glyph-name="hyphen" unicode="-" horiz-adv-x="368" 
d="M331 202h-294v111h294v-111z" />
    <glyph glyph-name="period" unicode="." horiz-adv-x="278" 
d="M261 111q0 -53 -36 -88.5t-89 -35.5q-49 0 -84 36t-35 88q0 49 35 84.5t84 35.5q53 0 89 -35t36 -85z" />
    <glyph glyph-name="slash" unicode="/" horiz-adv-x="503" 
d="M26 -34h-11l463 776h11z" />
    <glyph glyph-name="zero" unicode="0" horiz-adv-x="732" 
d="M617 100q-48 -55 -111.5 -84t-138.5 -29t-138.5 29t-111.5 84q-45 52 -70 120t-25 139t25 139t70 120q48 55 112 83.5t138 28.5q75 0 138.5 -28.5t110.5 -83.5q45 -52 70 -120t25 -139t-24.5 -139t-69.5 -120zM260 359q0 -215 25 -290.5t82 -75.5t81.5 75.5t24.5 290.5
q0 214 -24.5 289.5t-81.5 75.5t-82 -75.5t-25 -289.5z" />
    <glyph glyph-name="A" unicode="A" horiz-adv-x="776" 
d="M461 95l-99 240h-150l-8 -21q-21 -58 -22.5 -108.5t16.5 -91.5q22 -48 66.5 -78t95.5 -32v-4h-395v4q51 4 108 70t97 172l109 289l-66 161q86 6 127.5 34.5t61.5 92.5h3l307 -749q13 -33 33.5 -48.5t61.5 -21.5v-4h-408v4q61 6 71.5 24t-9.5 67zM284 525l-68 -180h142z
" />
    <glyph glyph-name="A" unicode="&#x104;" horiz-adv-x="776" 
d="M461 95l-99 240h-150l-8 -21q-21 -58 -22.5 -108.5t16.5 -91.5q22 -48 66.5 -78t95.5 -32v-4h-395v4q51 4 108 70t97 172l109 289l-66 161q86 6 127.5 34.5t61.5 92.5h3l307 -749q13 -33 33.5 -48.5t61.5 -21.5v-4h-408v4q61 6 71.5 24t-9.5 67zM284 525l-68 -180h142z
" />
    <glyph glyph-name="A" unicode="&#x102;" horiz-adv-x="776" 
d="M461 95l-99 240h-150l-8 -21q-21 -58 -22.5 -108.5t16.5 -91.5q22 -48 66.5 -78t95.5 -32v-4h-395v4q51 4 108 70t97 172l109 289l-66 161q86 6 127.5 34.5t61.5 92.5h3l307 -749q13 -33 33.5 -48.5t61.5 -21.5v-4h-408v4q61 6 71.5 24t-9.5 67zM284 525l-68 -180h142z
" />
    <glyph glyph-name="A" unicode="&#x100;" horiz-adv-x="776" 
d="M461 95l-99 240h-150l-8 -21q-21 -58 -22.5 -108.5t16.5 -91.5q22 -48 66.5 -78t95.5 -32v-4h-395v4q51 4 108 70t97 172l109 289l-66 161q86 6 127.5 34.5t61.5 92.5h3l307 -749q13 -33 33.5 -48.5t61.5 -21.5v-4h-408v4q61 6 71.5 24t-9.5 67zM284 525l-68 -180h142z
" />
    <glyph glyph-name="A" unicode="&#xc6;" horiz-adv-x="776" 
d="M461 95l-99 240h-150l-8 -21q-21 -58 -22.5 -108.5t16.5 -91.5q22 -48 66.5 -78t95.5 -32v-4h-395v4q51 4 108 70t97 172l109 289l-66 161q86 6 127.5 34.5t61.5 92.5h3l307 -749q13 -33 33.5 -48.5t61.5 -21.5v-4h-408v4q61 6 71.5 24t-9.5 67zM284 525l-68 -180h142z
" />
    <glyph glyph-name="A" unicode="&#xc5;" horiz-adv-x="776" 
d="M461 95l-99 240h-150l-8 -21q-21 -58 -22.5 -108.5t16.5 -91.5q22 -48 66.5 -78t95.5 -32v-4h-395v4q51 4 108 70t97 172l109 289l-66 161q86 6 127.5 34.5t61.5 92.5h3l307 -749q13 -33 33.5 -48.5t61.5 -21.5v-4h-408v4q61 6 71.5 24t-9.5 67zM284 525l-68 -180h142z
" />
    <glyph glyph-name="A" unicode="&#xc4;" horiz-adv-x="776" 
d="M461 95l-99 240h-150l-8 -21q-21 -58 -22.5 -108.5t16.5 -91.5q22 -48 66.5 -78t95.5 -32v-4h-395v4q51 4 108 70t97 172l109 289l-66 161q86 6 127.5 34.5t61.5 92.5h3l307 -749q13 -33 33.5 -48.5t61.5 -21.5v-4h-408v4q61 6 71.5 24t-9.5 67zM284 525l-68 -180h142z
" />
    <glyph glyph-name="A" unicode="&#xc3;" horiz-adv-x="776" 
d="M461 95l-99 240h-150l-8 -21q-21 -58 -22.5 -108.5t16.5 -91.5q22 -48 66.5 -78t95.5 -32v-4h-395v4q51 4 108 70t97 172l109 289l-66 161q86 6 127.5 34.5t61.5 92.5h3l307 -749q13 -33 33.5 -48.5t61.5 -21.5v-4h-408v4q61 6 71.5 24t-9.5 67zM284 525l-68 -180h142z
" />
    <glyph glyph-name="A" unicode="&#xc2;" horiz-adv-x="776" 
d="M461 95l-99 240h-150l-8 -21q-21 -58 -22.5 -108.5t16.5 -91.5q22 -48 66.5 -78t95.5 -32v-4h-395v4q51 4 108 70t97 172l109 289l-66 161q86 6 127.5 34.5t61.5 92.5h3l307 -749q13 -33 33.5 -48.5t61.5 -21.5v-4h-408v4q61 6 71.5 24t-9.5 67zM284 525l-68 -180h142z
" />
    <glyph glyph-name="A" unicode="&#xc1;" horiz-adv-x="776" 
d="M461 95l-99 240h-150l-8 -21q-21 -58 -22.5 -108.5t16.5 -91.5q22 -48 66.5 -78t95.5 -32v-4h-395v4q51 4 108 70t97 172l109 289l-66 161q86 6 127.5 34.5t61.5 92.5h3l307 -749q13 -33 33.5 -48.5t61.5 -21.5v-4h-408v4q61 6 71.5 24t-9.5 67zM284 525l-68 -180h142z
" />
    <glyph glyph-name="A" unicode="&#xc0;" horiz-adv-x="776" 
d="M461 95l-99 240h-150l-8 -21q-21 -58 -22.5 -108.5t16.5 -91.5q22 -48 66.5 -78t95.5 -32v-4h-395v4q51 4 108 70t97 172l109 289l-66 161q86 6 127.5 34.5t61.5 92.5h3l307 -749q13 -33 33.5 -48.5t61.5 -21.5v-4h-408v4q61 6 71.5 24t-9.5 67zM284 525l-68 -180h142z
" />
    <glyph glyph-name="B" unicode="B" horiz-adv-x="790" 
d="M19 708v4h409q147 0 224 -40.5t77 -116.5q0 -71 -68 -117.5t-193 -60.5v-2q156 -2 231.5 -47t75.5 -134q0 -93 -81 -143.5t-229 -50.5h-446v4q51 12 70.5 54.5t19.5 145.5v304q0 103 -19.5 145.5t-70.5 54.5zM505 541q0 82 -33 123t-100 41h-43v-332h43q66 0 99.5 42.5
t33.5 125.5zM329 366v-359h42q86 0 130 45t44 133q0 89 -44.5 135t-129.5 46h-42z" />
    <glyph glyph-name="C" unicode="C" horiz-adv-x="822" 
d="M445 -13q-186 0 -305.5 103t-119.5 268t119.5 268.5t305.5 103.5q35 0 70 -7.5t91 -30.5q29 -11 41 -14.5t20 -3.5q25 0 37.5 16.5t15.5 63.5h5l78 -375h-5q-60 164 -151 254t-202 90q-79 0 -128.5 -102.5t-49.5 -262.5t49.5 -262t128.5 -102q111 0 202 90t151 254h5
l-78 -375h-5q-3 47 -15.5 63.5t-37.5 16.5q-8 0 -20 -3.5t-41 -14.5q-56 -23 -91 -30.5t-70 -7.5z" />
    <glyph glyph-name="C" unicode="&#x10c;" horiz-adv-x="822" 
d="M445 -13q-186 0 -305.5 103t-119.5 268t119.5 268.5t305.5 103.5q35 0 70 -7.5t91 -30.5q29 -11 41 -14.5t20 -3.5q25 0 37.5 16.5t15.5 63.5h5l78 -375h-5q-60 164 -151 254t-202 90q-79 0 -128.5 -102.5t-49.5 -262.5t49.5 -262t128.5 -102q111 0 202 90t151 254h5
l-78 -375h-5q-3 47 -15.5 63.5t-37.5 16.5q-8 0 -20 -3.5t-41 -14.5q-56 -23 -91 -30.5t-70 -7.5z" />
    <glyph glyph-name="C" unicode="&#x10a;" horiz-adv-x="822" 
d="M445 -13q-186 0 -305.5 103t-119.5 268t119.5 268.5t305.5 103.5q35 0 70 -7.5t91 -30.5q29 -11 41 -14.5t20 -3.5q25 0 37.5 16.5t15.5 63.5h5l78 -375h-5q-60 164 -151 254t-202 90q-79 0 -128.5 -102.5t-49.5 -262.5t49.5 -262t128.5 -102q111 0 202 90t151 254h5
l-78 -375h-5q-3 47 -15.5 63.5t-37.5 16.5q-8 0 -20 -3.5t-41 -14.5q-56 -23 -91 -30.5t-70 -7.5z" />
    <glyph glyph-name="C" unicode="&#x108;" horiz-adv-x="822" 
d="M445 -13q-186 0 -305.5 103t-119.5 268t119.5 268.5t305.5 103.5q35 0 70 -7.5t91 -30.5q29 -11 41 -14.5t20 -3.5q25 0 37.5 16.5t15.5 63.5h5l78 -375h-5q-60 164 -151 254t-202 90q-79 0 -128.5 -102.5t-49.5 -262.5t49.5 -262t128.5 -102q111 0 202 90t151 254h5
l-78 -375h-5q-3 47 -15.5 63.5t-37.5 16.5q-8 0 -20 -3.5t-41 -14.5q-56 -23 -91 -30.5t-70 -7.5z" />
    <glyph glyph-name="C" unicode="&#x106;" horiz-adv-x="822" 
d="M445 -13q-186 0 -305.5 103t-119.5 268t119.5 268.5t305.5 103.5q35 0 70 -7.5t91 -30.5q29 -11 41 -14.5t20 -3.5q25 0 37.5 16.5t15.5 63.5h5l78 -375h-5q-60 164 -151 254t-202 90q-79 0 -128.5 -102.5t-49.5 -262.5t49.5 -262t128.5 -102q111 0 202 90t151 254h5
l-78 -375h-5q-3 47 -15.5 63.5t-37.5 16.5q-8 0 -20 -3.5t-41 -14.5q-56 -23 -91 -30.5t-70 -7.5z" />
    <glyph glyph-name="C" unicode="&#xc7;" horiz-adv-x="822" 
d="M445 -13q-186 0 -305.5 103t-119.5 268t119.5 268.5t305.5 103.5q35 0 70 -7.5t91 -30.5q29 -11 41 -14.5t20 -3.5q25 0 37.5 16.5t15.5 63.5h5l78 -375h-5q-60 164 -151 254t-202 90q-79 0 -128.5 -102.5t-49.5 -262.5t49.5 -262t128.5 -102q111 0 202 90t151 254h5
l-78 -375h-5q-3 47 -15.5 63.5t-37.5 16.5q-8 0 -20 -3.5t-41 -14.5q-56 -23 -91 -30.5t-70 -7.5z" />
    <glyph glyph-name="D" unicode="D" horiz-adv-x="847" 
d="M19 708v4h328q232 0 355 -89t123 -261q0 -179 -118.5 -270.5t-349.5 -91.5h-338v4q51 12 70.5 54.5t19.5 145.5v304q0 103 -19.5 145.5t-70.5 54.5zM588 362q0 168 -66 256.5t-193 88.5v-702q128 0 193.5 90.5t65.5 266.5z" />
    <glyph glyph-name="D" unicode="&#x110;" horiz-adv-x="847" 
d="M19 708v4h328q232 0 355 -89t123 -261q0 -179 -118.5 -270.5t-349.5 -91.5h-338v4q51 12 70.5 54.5t19.5 145.5v304q0 103 -19.5 145.5t-70.5 54.5zM588 362q0 168 -66 256.5t-193 88.5v-702q128 0 193.5 90.5t65.5 266.5z" />
    <glyph glyph-name="D" unicode="&#x10e;" horiz-adv-x="847" 
d="M19 708v4h328q232 0 355 -89t123 -261q0 -179 -118.5 -270.5t-349.5 -91.5h-338v4q51 12 70.5 54.5t19.5 145.5v304q0 103 -19.5 145.5t-70.5 54.5zM588 362q0 168 -66 256.5t-193 88.5v-702q128 0 193.5 90.5t65.5 266.5z" />
    <glyph glyph-name="D" unicode="&#xd0;" horiz-adv-x="847" 
d="M19 708v4h328q232 0 355 -89t123 -261q0 -179 -118.5 -270.5t-349.5 -91.5h-338v4q51 12 70.5 54.5t19.5 145.5v304q0 103 -19.5 145.5t-70.5 54.5zM588 362q0 168 -66 256.5t-193 88.5v-702q128 0 193.5 90.5t65.5 266.5z" />
    <glyph glyph-name="E" unicode="E" horiz-adv-x="797" 
d="M19 708v4h662l49 -322h-4q-53 131 -171.5 224t-225.5 93v-332h359v-10h-359v-360q55 0 129 27.5t144 73.5q69 46 119 101.5t74 114.5h5l-119 -322h-662v4q51 12 70.5 54.5t19.5 145.5v304q0 103 -19.5 145.5t-70.5 54.5z" />
    <glyph glyph-name="E" unicode="&#x11a;" horiz-adv-x="797" 
d="M19 708v4h662l49 -322h-4q-53 131 -171.5 224t-225.5 93v-332h359v-10h-359v-360q55 0 129 27.5t144 73.5q69 46 119 101.5t74 114.5h5l-119 -322h-662v4q51 12 70.5 54.5t19.5 145.5v304q0 103 -19.5 145.5t-70.5 54.5z" />
    <glyph glyph-name="E" unicode="&#x118;" horiz-adv-x="797" 
d="M19 708v4h662l49 -322h-4q-53 131 -171.5 224t-225.5 93v-332h359v-10h-359v-360q55 0 129 27.5t144 73.5q69 46 119 101.5t74 114.5h5l-119 -322h-662v4q51 12 70.5 54.5t19.5 145.5v304q0 103 -19.5 145.5t-70.5 54.5z" />
    <glyph glyph-name="E" unicode="&#x116;" horiz-adv-x="797" 
d="M19 708v4h662l49 -322h-4q-53 131 -171.5 224t-225.5 93v-332h359v-10h-359v-360q55 0 129 27.5t144 73.5q69 46 119 101.5t74 114.5h5l-119 -322h-662v4q51 12 70.5 54.5t19.5 145.5v304q0 103 -19.5 145.5t-70.5 54.5z" />
    <glyph glyph-name="E" unicode="&#x114;" horiz-adv-x="797" 
d="M19 708v4h662l49 -322h-4q-53 131 -171.5 224t-225.5 93v-332h359v-10h-359v-360q55 0 129 27.5t144 73.5q69 46 119 101.5t74 114.5h5l-119 -322h-662v4q51 12 70.5 54.5t19.5 145.5v304q0 103 -19.5 145.5t-70.5 54.5z" />
    <glyph glyph-name="E" unicode="&#x112;" horiz-adv-x="797" 
d="M19 708v4h662l49 -322h-4q-53 131 -171.5 224t-225.5 93v-332h359v-10h-359v-360q55 0 129 27.5t144 73.5q69 46 119 101.5t74 114.5h5l-119 -322h-662v4q51 12 70.5 54.5t19.5 145.5v304q0 103 -19.5 145.5t-70.5 54.5z" />
    <glyph glyph-name="E" unicode="&#xcb;" horiz-adv-x="797" 
d="M19 708v4h662l49 -322h-4q-53 131 -171.5 224t-225.5 93v-332h359v-10h-359v-360q55 0 129 27.5t144 73.5q69 46 119 101.5t74 114.5h5l-119 -322h-662v4q51 12 70.5 54.5t19.5 145.5v304q0 103 -19.5 145.5t-70.5 54.5z" />
    <glyph glyph-name="E" unicode="&#xca;" horiz-adv-x="797" 
d="M19 708v4h662l49 -322h-4q-53 131 -171.5 224t-225.5 93v-332h359v-10h-359v-360q55 0 129 27.5t144 73.5q69 46 119 101.5t74 114.5h5l-119 -322h-662v4q51 12 70.5 54.5t19.5 145.5v304q0 103 -19.5 145.5t-70.5 54.5z" />
    <glyph glyph-name="E" unicode="&#xc9;" horiz-adv-x="797" 
d="M19 708v4h662l49 -322h-4q-53 131 -171.5 224t-225.5 93v-332h359v-10h-359v-360q55 0 129 27.5t144 73.5q69 46 119 101.5t74 114.5h5l-119 -322h-662v4q51 12 70.5 54.5t19.5 145.5v304q0 103 -19.5 145.5t-70.5 54.5z" />
    <glyph glyph-name="E" unicode="&#xc8;" horiz-adv-x="797" 
d="M19 708v4h662l49 -322h-4q-53 131 -171.5 224t-225.5 93v-332h359v-10h-359v-360q55 0 129 27.5t144 73.5q69 46 119 101.5t74 114.5h5l-119 -322h-662v4q51 12 70.5 54.5t19.5 145.5v304q0 103 -19.5 145.5t-70.5 54.5z" />
    <glyph glyph-name="F" unicode="F" horiz-adv-x="728" 
d="M459 4v-4h-440v4q51 12 70.5 54.5t19.5 145.5v304q0 103 -19.5 145.5t-70.5 54.5v4h662l49 -322h-4q-53 131 -171.5 224t-225.5 93v-332h359v-10h-359v-161q0 -111 27 -150t103 -50z" />
    <glyph glyph-name="G" unicode="G" horiz-adv-x="848" 
d="M267 329h534v-366h-6q-3 35 -31.5 57.5t-74.5 22.5q-18 0 -37 -4.5t-58 -18.5q-51 -20 -83 -26.5t-66 -6.5q-186 0 -305.5 103t-119.5 268t119.5 268.5t305.5 103.5q35 0 70 -7.5t91 -30.5q29 -11 41 -14.5t20 -3.5q25 0 37.5 16.5t15.5 63.5h5l78 -375h-5
q-60 164 -151 254t-202 90q-79 0 -128.5 -102.5t-49.5 -262.5v-29zM581 25v294h-313q6 -145 54.5 -234.5t122.5 -89.5q38 0 72 7.5t64 22.5z" />
    <glyph glyph-name="G" unicode="&#x122;" horiz-adv-x="848" 
d="M267 329h534v-366h-6q-3 35 -31.5 57.5t-74.5 22.5q-18 0 -37 -4.5t-58 -18.5q-51 -20 -83 -26.5t-66 -6.5q-186 0 -305.5 103t-119.5 268t119.5 268.5t305.5 103.5q35 0 70 -7.5t91 -30.5q29 -11 41 -14.5t20 -3.5q25 0 37.5 16.5t15.5 63.5h5l78 -375h-5
q-60 164 -151 254t-202 90q-79 0 -128.5 -102.5t-49.5 -262.5v-29zM581 25v294h-313q6 -145 54.5 -234.5t122.5 -89.5q38 0 72 7.5t64 22.5z" />
    <glyph glyph-name="G" unicode="&#x120;" horiz-adv-x="848" 
d="M267 329h534v-366h-6q-3 35 -31.5 57.5t-74.5 22.5q-18 0 -37 -4.5t-58 -18.5q-51 -20 -83 -26.5t-66 -6.5q-186 0 -305.5 103t-119.5 268t119.5 268.5t305.5 103.5q35 0 70 -7.5t91 -30.5q29 -11 41 -14.5t20 -3.5q25 0 37.5 16.5t15.5 63.5h5l78 -375h-5
q-60 164 -151 254t-202 90q-79 0 -128.5 -102.5t-49.5 -262.5v-29zM581 25v294h-313q6 -145 54.5 -234.5t122.5 -89.5q38 0 72 7.5t64 22.5z" />
    <glyph glyph-name="G" unicode="&#x11e;" horiz-adv-x="848" 
d="M267 329h534v-366h-6q-3 35 -31.5 57.5t-74.5 22.5q-18 0 -37 -4.5t-58 -18.5q-51 -20 -83 -26.5t-66 -6.5q-186 0 -305.5 103t-119.5 268t119.5 268.5t305.5 103.5q35 0 70 -7.5t91 -30.5q29 -11 41 -14.5t20 -3.5q25 0 37.5 16.5t15.5 63.5h5l78 -375h-5
q-60 164 -151 254t-202 90q-79 0 -128.5 -102.5t-49.5 -262.5v-29zM581 25v294h-313q6 -145 54.5 -234.5t122.5 -89.5q38 0 72 7.5t64 22.5z" />
    <glyph glyph-name="G" unicode="&#x11c;" horiz-adv-x="848" 
d="M267 329h534v-366h-6q-3 35 -31.5 57.5t-74.5 22.5q-18 0 -37 -4.5t-58 -18.5q-51 -20 -83 -26.5t-66 -6.5q-186 0 -305.5 103t-119.5 268t119.5 268.5t305.5 103.5q35 0 70 -7.5t91 -30.5q29 -11 41 -14.5t20 -3.5q25 0 37.5 16.5t15.5 63.5h5l78 -375h-5
q-60 164 -151 254t-202 90q-79 0 -128.5 -102.5t-49.5 -262.5v-29zM581 25v294h-313q6 -145 54.5 -234.5t122.5 -89.5q38 0 72 7.5t64 22.5z" />
    <glyph glyph-name="H" unicode="H" horiz-adv-x="928" 
d="M19 712h400v-4q-51 -12 -70.5 -54.5t-19.5 -145.5v-133h270v133q0 103 -19.5 145.5t-70.5 54.5v4h400v-4q-51 -12 -70.5 -54.5t-19.5 -145.5v-304q0 -103 19.5 -145.5t70.5 -54.5v-4h-400v4q51 12 70.5 54.5t19.5 145.5v161h-270v-161q0 -103 19.5 -145.5t70.5 -54.5v-4
h-400v4q51 12 70.5 54.5t19.5 145.5v304q0 103 -19.5 145.5t-70.5 54.5v4z" />
    <glyph glyph-name="H" unicode="&#x126;" horiz-adv-x="928" 
d="M19 712h400v-4q-51 -12 -70.5 -54.5t-19.5 -145.5v-133h270v133q0 103 -19.5 145.5t-70.5 54.5v4h400v-4q-51 -12 -70.5 -54.5t-19.5 -145.5v-304q0 -103 19.5 -145.5t70.5 -54.5v-4h-400v4q51 12 70.5 54.5t19.5 145.5v161h-270v-161q0 -103 19.5 -145.5t70.5 -54.5v-4
h-400v4q51 12 70.5 54.5t19.5 145.5v304q0 103 -19.5 145.5t-70.5 54.5v4z" />
    <glyph glyph-name="H" unicode="&#x124;" horiz-adv-x="928" 
d="M19 712h400v-4q-51 -12 -70.5 -54.5t-19.5 -145.5v-133h270v133q0 103 -19.5 145.5t-70.5 54.5v4h400v-4q-51 -12 -70.5 -54.5t-19.5 -145.5v-304q0 -103 19.5 -145.5t70.5 -54.5v-4h-400v4q51 12 70.5 54.5t19.5 145.5v161h-270v-161q0 -103 19.5 -145.5t70.5 -54.5v-4
h-400v4q51 12 70.5 54.5t19.5 145.5v304q0 103 -19.5 145.5t-70.5 54.5v4z" />
    <glyph glyph-name="I" unicode="I" horiz-adv-x="438" 
d="M19 712h400v-4q-51 -12 -70.5 -54.5t-19.5 -145.5v-304q0 -103 19.5 -145.5t70.5 -54.5v-4h-400v4q51 12 70.5 54.5t19.5 145.5v304q0 103 -19.5 145.5t-70.5 54.5v4z" />
    <glyph glyph-name="I" unicode="&#x1eca;" horiz-adv-x="438" 
d="M19 712h400v-4q-51 -12 -70.5 -54.5t-19.5 -145.5v-304q0 -103 19.5 -145.5t70.5 -54.5v-4h-400v4q51 12 70.5 54.5t19.5 145.5v304q0 103 -19.5 145.5t-70.5 54.5v4z" />
    <glyph glyph-name="I" unicode="&#x130;" horiz-adv-x="438" 
d="M19 712h400v-4q-51 -12 -70.5 -54.5t-19.5 -145.5v-304q0 -103 19.5 -145.5t70.5 -54.5v-4h-400v4q51 12 70.5 54.5t19.5 145.5v304q0 103 -19.5 145.5t-70.5 54.5v4z" />
    <glyph glyph-name="I" unicode="&#x12e;" horiz-adv-x="438" 
d="M19 712h400v-4q-51 -12 -70.5 -54.5t-19.5 -145.5v-304q0 -103 19.5 -145.5t70.5 -54.5v-4h-400v4q51 12 70.5 54.5t19.5 145.5v304q0 103 -19.5 145.5t-70.5 54.5v4z" />
    <glyph glyph-name="I" unicode="&#x12c;" horiz-adv-x="438" 
d="M19 712h400v-4q-51 -12 -70.5 -54.5t-19.5 -145.5v-304q0 -103 19.5 -145.5t70.5 -54.5v-4h-400v4q51 12 70.5 54.5t19.5 145.5v304q0 103 -19.5 145.5t-70.5 54.5v4z" />
    <glyph glyph-name="I" unicode="&#x12a;" horiz-adv-x="438" 
d="M19 712h400v-4q-51 -12 -70.5 -54.5t-19.5 -145.5v-304q0 -103 19.5 -145.5t70.5 -54.5v-4h-400v4q51 12 70.5 54.5t19.5 145.5v304q0 103 -19.5 145.5t-70.5 54.5v4z" />
    <glyph glyph-name="I" unicode="&#x128;" horiz-adv-x="438" 
d="M19 712h400v-4q-51 -12 -70.5 -54.5t-19.5 -145.5v-304q0 -103 19.5 -145.5t70.5 -54.5v-4h-400v4q51 12 70.5 54.5t19.5 145.5v304q0 103 -19.5 145.5t-70.5 54.5v4z" />
    <glyph glyph-name="I" unicode="&#xcf;" horiz-adv-x="438" 
d="M19 712h400v-4q-51 -12 -70.5 -54.5t-19.5 -145.5v-304q0 -103 19.5 -145.5t70.5 -54.5v-4h-400v4q51 12 70.5 54.5t19.5 145.5v304q0 103 -19.5 145.5t-70.5 54.5v4z" />
    <glyph glyph-name="I" unicode="&#xce;" horiz-adv-x="438" 
d="M19 712h400v-4q-51 -12 -70.5 -54.5t-19.5 -145.5v-304q0 -103 19.5 -145.5t70.5 -54.5v-4h-400v4q51 12 70.5 54.5t19.5 145.5v304q0 103 -19.5 145.5t-70.5 54.5v4z" />
    <glyph glyph-name="I" unicode="&#xcd;" horiz-adv-x="438" 
d="M19 712h400v-4q-51 -12 -70.5 -54.5t-19.5 -145.5v-304q0 -103 19.5 -145.5t70.5 -54.5v-4h-400v4q51 12 70.5 54.5t19.5 145.5v304q0 103 -19.5 145.5t-70.5 54.5v4z" />
    <glyph glyph-name="I" unicode="&#xcc;" horiz-adv-x="438" 
d="M19 712h400v-4q-51 -12 -70.5 -54.5t-19.5 -145.5v-304q0 -103 19.5 -145.5t70.5 -54.5v-4h-400v4q51 12 70.5 54.5t19.5 145.5v304q0 103 -19.5 145.5t-70.5 54.5v4z" />
    <glyph glyph-name="J" unicode="J" horiz-adv-x="418" 
d="M318 508v-467q0 -113 -61.5 -185.5t-153.5 -72.5q-66 0 -109 37.5t-43 95.5q0 40 29.5 69t75.5 29q47 0 74.5 -28t27.5 -74q0 -24 -7.5 -44t-27.5 -45q-8 -10 -10 -14t-2 -7q0 -4 3 -6.5t9 -2.5q47 0 82 32t35 81q0 60 -38 97.5t-104 37.5v467q0 103 -19.5 145.5
t-70.5 54.5v4h400v-4q-51 -12 -70.5 -54.5t-19.5 -145.5z" />
    <glyph glyph-name="J" unicode="&#x134;" horiz-adv-x="418" 
d="M318 508v-467q0 -113 -61.5 -185.5t-153.5 -72.5q-66 0 -109 37.5t-43 95.5q0 40 29.5 69t75.5 29q47 0 74.5 -28t27.5 -74q0 -24 -7.5 -44t-27.5 -45q-8 -10 -10 -14t-2 -7q0 -4 3 -6.5t9 -2.5q47 0 82 32t35 81q0 60 -38 97.5t-104 37.5v467q0 103 -19.5 145.5
t-70.5 54.5v4h400v-4q-51 -12 -70.5 -54.5t-19.5 -145.5z" />
    <glyph glyph-name="K" unicode="K" horiz-adv-x="868" 
d="M19 712h400v-4q-51 -12 -70.5 -54.5t-19.5 -145.5v-133h31q186 149 208 231.5t-123 101.5v4h377v-4q-55 -10 -148 -67t-149 -119l300 -439q24 -35 45 -53.5t43 -25.5v-4h-310l-250 365h-24v-161q0 -103 19.5 -145.5t70.5 -54.5v-4h-400v4q51 12 70.5 54.5t19.5 145.5v304
q0 103 -19.5 145.5t-70.5 54.5v4z" />
    <glyph glyph-name="K" unicode="&#x136;" horiz-adv-x="868" 
d="M19 712h400v-4q-51 -12 -70.5 -54.5t-19.5 -145.5v-133h31q186 149 208 231.5t-123 101.5v4h377v-4q-55 -10 -148 -67t-149 -119l300 -439q24 -35 45 -53.5t43 -25.5v-4h-310l-250 365h-24v-161q0 -103 19.5 -145.5t70.5 -54.5v-4h-400v4q51 12 70.5 54.5t19.5 145.5v304
q0 103 -19.5 145.5t-70.5 54.5v4z" />
    <glyph glyph-name="L" unicode="L" horiz-adv-x="734" 
d="M329 508v-503q119 0 218.5 122t156.5 345h7l-22 -472h-670v4q51 12 70.5 54.5t19.5 145.5v304q0 103 -19.5 145.5t-70.5 54.5v4h400v-4q-51 -12 -70.5 -54.5t-19.5 -145.5z" />
    <glyph glyph-name="L" unicode="&#x141;" horiz-adv-x="734" 
d="M329 508v-503q119 0 218.5 122t156.5 345h7l-22 -472h-670v4q51 12 70.5 54.5t19.5 145.5v304q0 103 -19.5 145.5t-70.5 54.5v4h400v-4q-51 -12 -70.5 -54.5t-19.5 -145.5z" />
    <glyph glyph-name="L" unicode="&#x13f;" horiz-adv-x="734" 
d="M329 508v-503q119 0 218.5 122t156.5 345h7l-22 -472h-670v4q51 12 70.5 54.5t19.5 145.5v304q0 103 -19.5 145.5t-70.5 54.5v4h400v-4q-51 -12 -70.5 -54.5t-19.5 -145.5z" />
    <glyph glyph-name="L" unicode="&#x13d;" horiz-adv-x="734" 
d="M329 508v-503q119 0 218.5 122t156.5 345h7l-22 -472h-670v4q51 12 70.5 54.5t19.5 145.5v304q0 103 -19.5 145.5t-70.5 54.5v4h400v-4q-51 -12 -70.5 -54.5t-19.5 -145.5z" />
    <glyph glyph-name="L" unicode="&#x13b;" horiz-adv-x="734" 
d="M329 508v-503q119 0 218.5 122t156.5 345h7l-22 -472h-670v4q51 12 70.5 54.5t19.5 145.5v304q0 103 -19.5 145.5t-70.5 54.5v4h400v-4q-51 -12 -70.5 -54.5t-19.5 -145.5z" />
    <glyph glyph-name="L" unicode="&#x139;" horiz-adv-x="734" 
d="M329 508v-503q119 0 218.5 122t156.5 345h7l-22 -472h-670v4q51 12 70.5 54.5t19.5 145.5v304q0 103 -19.5 145.5t-70.5 54.5v4h400v-4q-51 -12 -70.5 -54.5t-19.5 -145.5z" />
    <glyph glyph-name="M" unicode="M" horiz-adv-x="964" 
d="M409 0h-420v4q52 5 94 117.5t57 273.5l16 177l-137 136v4h286l231 -220l78 220h293v-4q-50 -12 -65.5 -54.5t-6.5 -145.5l26 -304q9 -104 32 -146t76 -54v-4h-400v4q50 12 65.5 54.5t6.5 145.5l-39 449l-138 -383h-3l-297 295l-13 -141q-18 -194 46 -297.5t212 -122.5v-4
z" />
    <glyph glyph-name="N" unicode="N" horiz-adv-x="827" 
d="M125 342v229l-117 137v4h288l408 -471v106q0 64 -18 121.5t-53 106.5q-40 55 -95 92t-99 41v4h390v-4q-59 -6 -88 -90t-29 -248v-370h-98l-481 562v-197q0 -64 18 -121.5t53 -106.5q40 -55 95 -92t99 -41v-4h-390v4q59 6 88 90t29 248z" />
    <glyph glyph-name="N" unicode="&#x14a;" horiz-adv-x="827" 
d="M125 342v229l-117 137v4h288l408 -471v106q0 64 -18 121.5t-53 106.5q-40 55 -95 92t-99 41v4h390v-4q-59 -6 -88 -90t-29 -248v-370h-98l-481 562v-197q0 -64 18 -121.5t53 -106.5q40 -55 95 -92t99 -41v-4h-390v4q59 6 88 90t29 248z" />
    <glyph glyph-name="N" unicode="&#x147;" horiz-adv-x="827" 
d="M125 342v229l-117 137v4h288l408 -471v106q0 64 -18 121.5t-53 106.5q-40 55 -95 92t-99 41v4h390v-4q-59 -6 -88 -90t-29 -248v-370h-98l-481 562v-197q0 -64 18 -121.5t53 -106.5q40 -55 95 -92t99 -41v-4h-390v4q59 6 88 90t29 248z" />
    <glyph glyph-name="N" unicode="&#x145;" horiz-adv-x="827" 
d="M125 342v229l-117 137v4h288l408 -471v106q0 64 -18 121.5t-53 106.5q-40 55 -95 92t-99 41v4h390v-4q-59 -6 -88 -90t-29 -248v-370h-98l-481 562v-197q0 -64 18 -121.5t53 -106.5q40 -55 95 -92t99 -41v-4h-390v4q59 6 88 90t29 248z" />
    <glyph glyph-name="N" unicode="&#x143;" horiz-adv-x="827" 
d="M125 342v229l-117 137v4h288l408 -471v106q0 64 -18 121.5t-53 106.5q-40 55 -95 92t-99 41v4h390v-4q-59 -6 -88 -90t-29 -248v-370h-98l-481 562v-197q0 -64 18 -121.5t53 -106.5q40 -55 95 -92t99 -41v-4h-390v4q59 6 88 90t29 248z" />
    <glyph glyph-name="N" unicode="&#xd1;" horiz-adv-x="827" 
d="M125 342v229l-117 137v4h288l408 -471v106q0 64 -18 121.5t-53 106.5q-40 55 -95 92t-99 41v4h390v-4q-59 -6 -88 -90t-29 -248v-370h-98l-481 562v-197q0 -64 18 -121.5t53 -106.5q40 -55 95 -92t99 -41v-4h-390v4q59 6 88 90t29 248z" />
    <glyph glyph-name="O" unicode="O" horiz-adv-x="866" 
d="M846 358q0 -163 -117.5 -267t-295.5 -104t-295.5 104t-117.5 267t117.5 267.5t295.5 104.5t295.5 -104.5t117.5 -267.5zM275 316q39 -149 98.5 -233t126.5 -84q58 0 90.5 49.5t32.5 140.5q0 46 -8 100t-24 112q-39 149 -98.5 233t-126.5 84q-58 0 -90.5 -49.5
t-32.5 -140.5q0 -46 8 -100t24 -112z" />
    <glyph glyph-name="O" unicode="&#x1ecc;" horiz-adv-x="866" 
d="M846 358q0 -163 -117.5 -267t-295.5 -104t-295.5 104t-117.5 267t117.5 267.5t295.5 104.5t295.5 -104.5t117.5 -267.5zM275 316q39 -149 98.5 -233t126.5 -84q58 0 90.5 49.5t32.5 140.5q0 46 -8 100t-24 112q-39 149 -98.5 233t-126.5 84q-58 0 -90.5 -49.5
t-32.5 -140.5q0 -46 8 -100t24 -112z" />
    <glyph glyph-name="O" unicode="&#x152;" horiz-adv-x="866" 
d="M846 358q0 -163 -117.5 -267t-295.5 -104t-295.5 104t-117.5 267t117.5 267.5t295.5 104.5t295.5 -104.5t117.5 -267.5zM275 316q39 -149 98.5 -233t126.5 -84q58 0 90.5 49.5t32.5 140.5q0 46 -8 100t-24 112q-39 149 -98.5 233t-126.5 84q-58 0 -90.5 -49.5
t-32.5 -140.5q0 -46 8 -100t24 -112z" />
    <glyph glyph-name="O" unicode="&#x150;" horiz-adv-x="866" 
d="M846 358q0 -163 -117.5 -267t-295.5 -104t-295.5 104t-117.5 267t117.5 267.5t295.5 104.5t295.5 -104.5t117.5 -267.5zM275 316q39 -149 98.5 -233t126.5 -84q58 0 90.5 49.5t32.5 140.5q0 46 -8 100t-24 112q-39 149 -98.5 233t-126.5 84q-58 0 -90.5 -49.5
t-32.5 -140.5q0 -46 8 -100t24 -112z" />
    <glyph glyph-name="O" unicode="&#x14e;" horiz-adv-x="866" 
d="M846 358q0 -163 -117.5 -267t-295.5 -104t-295.5 104t-117.5 267t117.5 267.5t295.5 104.5t295.5 -104.5t117.5 -267.5zM275 316q39 -149 98.5 -233t126.5 -84q58 0 90.5 49.5t32.5 140.5q0 46 -8 100t-24 112q-39 149 -98.5 233t-126.5 84q-58 0 -90.5 -49.5
t-32.5 -140.5q0 -46 8 -100t24 -112z" />
    <glyph glyph-name="O" unicode="&#x14c;" horiz-adv-x="866" 
d="M846 358q0 -163 -117.5 -267t-295.5 -104t-295.5 104t-117.5 267t117.5 267.5t295.5 104.5t295.5 -104.5t117.5 -267.5zM275 316q39 -149 98.5 -233t126.5 -84q58 0 90.5 49.5t32.5 140.5q0 46 -8 100t-24 112q-39 149 -98.5 233t-126.5 84q-58 0 -90.5 -49.5
t-32.5 -140.5q0 -46 8 -100t24 -112z" />
    <glyph glyph-name="O" unicode="&#xd8;" horiz-adv-x="866" 
d="M846 358q0 -163 -117.5 -267t-295.5 -104t-295.5 104t-117.5 267t117.5 267.5t295.5 104.5t295.5 -104.5t117.5 -267.5zM275 316q39 -149 98.5 -233t126.5 -84q58 0 90.5 49.5t32.5 140.5q0 46 -8 100t-24 112q-39 149 -98.5 233t-126.5 84q-58 0 -90.5 -49.5
t-32.5 -140.5q0 -46 8 -100t24 -112z" />
    <glyph glyph-name="O" unicode="&#xd6;" horiz-adv-x="866" 
d="M846 358q0 -163 -117.5 -267t-295.5 -104t-295.5 104t-117.5 267t117.5 267.5t295.5 104.5t295.5 -104.5t117.5 -267.5zM275 316q39 -149 98.5 -233t126.5 -84q58 0 90.5 49.5t32.5 140.5q0 46 -8 100t-24 112q-39 149 -98.5 233t-126.5 84q-58 0 -90.5 -49.5
t-32.5 -140.5q0 -46 8 -100t24 -112z" />
    <glyph glyph-name="O" unicode="&#xd5;" horiz-adv-x="866" 
d="M846 358q0 -163 -117.5 -267t-295.5 -104t-295.5 104t-117.5 267t117.5 267.5t295.5 104.5t295.5 -104.5t117.5 -267.5zM275 316q39 -149 98.5 -233t126.5 -84q58 0 90.5 49.5t32.5 140.5q0 46 -8 100t-24 112q-39 149 -98.5 233t-126.5 84q-58 0 -90.5 -49.5
t-32.5 -140.5q0 -46 8 -100t24 -112z" />
    <glyph glyph-name="O" unicode="&#xd4;" horiz-adv-x="866" 
d="M846 358q0 -163 -117.5 -267t-295.5 -104t-295.5 104t-117.5 267t117.5 267.5t295.5 104.5t295.5 -104.5t117.5 -267.5zM275 316q39 -149 98.5 -233t126.5 -84q58 0 90.5 49.5t32.5 140.5q0 46 -8 100t-24 112q-39 149 -98.5 233t-126.5 84q-58 0 -90.5 -49.5
t-32.5 -140.5q0 -46 8 -100t24 -112z" />
    <glyph glyph-name="O" unicode="&#xd3;" horiz-adv-x="866" 
d="M846 358q0 -163 -117.5 -267t-295.5 -104t-295.5 104t-117.5 267t117.5 267.5t295.5 104.5t295.5 -104.5t117.5 -267.5zM275 316q39 -149 98.5 -233t126.5 -84q58 0 90.5 49.5t32.5 140.5q0 46 -8 100t-24 112q-39 149 -98.5 233t-126.5 84q-58 0 -90.5 -49.5
t-32.5 -140.5q0 -46 8 -100t24 -112z" />
    <glyph glyph-name="O" unicode="&#xd2;" horiz-adv-x="866" 
d="M846 358q0 -163 -117.5 -267t-295.5 -104t-295.5 104t-117.5 267t117.5 267.5t295.5 104.5t295.5 -104.5t117.5 -267.5zM275 316q39 -149 98.5 -233t126.5 -84q58 0 90.5 49.5t32.5 140.5q0 46 -8 100t-24 112q-39 149 -98.5 233t-126.5 84q-58 0 -90.5 -49.5
t-32.5 -140.5q0 -46 8 -100t24 -112z" />
    <glyph glyph-name="P" unicode="P" horiz-adv-x="759" 
d="M329 707v-503q0 -56 2.5 -83.5t7.5 -46.5q10 -31 33 -47t67 -23v-4h-420v4q51 12 70.5 54.5t19.5 145.5v304q0 103 -19.5 145.5t-70.5 54.5v4h359q214 0 295 -47t81 -154q0 -114 -108.5 -165.5t-307.5 -35.5v4q98 4 144 51t46 145q0 101 -48.5 148.5t-150.5 48.5z" />
    <glyph glyph-name="P" unicode="&#xde;" horiz-adv-x="759" 
d="M329 707v-503q0 -56 2.5 -83.5t7.5 -46.5q10 -31 33 -47t67 -23v-4h-420v4q51 12 70.5 54.5t19.5 145.5v304q0 103 -19.5 145.5t-70.5 54.5v4h359q214 0 295 -47t81 -154q0 -114 -108.5 -165.5t-307.5 -35.5v4q98 4 144 51t46 145q0 101 -48.5 148.5t-150.5 48.5z" />
    <glyph glyph-name="Q" unicode="Q" horiz-adv-x="866" 
d="M846 358q0 -163 -117.5 -267t-295.5 -104h-19l-170 -68q21 6 49 9.5t54 3.5q49 0 100 -5.5t140 -23.5q61 -12 88 -15.5t49 -3.5q37 0 54.5 5t30.5 16t25 29t24 46l5 -2q-42 -139 -94.5 -202t-122.5 -63q-48 0 -93 23.5t-118 95.5q-56 57 -85 73.5t-56 16.5
q-12 0 -22.5 -1.5t-20.5 -4.5q22 -58 7 -95.5t-51 -37.5q-20 0 -32.5 13.5t-12.5 35.5q0 34 25.5 58t100.5 53l113 45q-167 10 -274 112.5t-107 257.5q0 163 117.5 267.5t295.5 104.5t295.5 -104.5t117.5 -267.5zM275 316q39 -149 98.5 -233t126.5 -84q58 0 90.5 49.5
t32.5 140.5q0 46 -8 100t-24 112q-39 149 -98.5 233t-126.5 84q-58 0 -90.5 -49.5t-32.5 -140.5q0 -46 8 -100t24 -112z" />
    <glyph glyph-name="R" unicode="R" horiz-adv-x="876" 
d="M19 708v4h438q172 0 249.5 -38t77.5 -119q0 -105 -106 -146.5t-324 -23.5v-1q34 -27 74 -40t89 -13q35 0 69.5 7t52.5 18l191 -280q24 -35 43 -50t52 -22v-4h-318l-265 391l61 -1q74 -1 114 41t40 118q0 75 -39.5 115.5t-114.5 40.5h-74v-501q0 -103 19.5 -145.5
t70.5 -54.5v-4h-400v4q51 12 70.5 54.5t19.5 145.5v304q0 103 -19.5 145.5t-70.5 54.5z" />
    <glyph glyph-name="R" unicode="&#x158;" horiz-adv-x="876" 
d="M19 708v4h438q172 0 249.5 -38t77.5 -119q0 -105 -106 -146.5t-324 -23.5v-1q34 -27 74 -40t89 -13q35 0 69.5 7t52.5 18l191 -280q24 -35 43 -50t52 -22v-4h-318l-265 391l61 -1q74 -1 114 41t40 118q0 75 -39.5 115.5t-114.5 40.5h-74v-501q0 -103 19.5 -145.5
t70.5 -54.5v-4h-400v4q51 12 70.5 54.5t19.5 145.5v304q0 103 -19.5 145.5t-70.5 54.5z" />
    <glyph glyph-name="R" unicode="&#x156;" horiz-adv-x="876" 
d="M19 708v4h438q172 0 249.5 -38t77.5 -119q0 -105 -106 -146.5t-324 -23.5v-1q34 -27 74 -40t89 -13q35 0 69.5 7t52.5 18l191 -280q24 -35 43 -50t52 -22v-4h-318l-265 391l61 -1q74 -1 114 41t40 118q0 75 -39.5 115.5t-114.5 40.5h-74v-501q0 -103 19.5 -145.5
t70.5 -54.5v-4h-400v4q51 12 70.5 54.5t19.5 145.5v304q0 103 -19.5 145.5t-70.5 54.5z" />
    <glyph glyph-name="R" unicode="&#x154;" horiz-adv-x="876" 
d="M19 708v4h438q172 0 249.5 -38t77.5 -119q0 -105 -106 -146.5t-324 -23.5v-1q34 -27 74 -40t89 -13q35 0 69.5 7t52.5 18l191 -280q24 -35 43 -50t52 -22v-4h-318l-265 391l61 -1q74 -1 114 41t40 118q0 75 -39.5 115.5t-114.5 40.5h-74v-501q0 -103 19.5 -145.5
t70.5 -54.5v-4h-400v4q51 12 70.5 54.5t19.5 145.5v304q0 103 -19.5 145.5t-70.5 54.5z" />
    <glyph glyph-name="S" unicode="S" horiz-adv-x="692" 
d="M69 492q0 102 82.5 170t191.5 68q36 0 68.5 -8t76.5 -30q22 -12 32 -15t18 -3q25 0 37.5 16.5t15.5 63.5h5l48 -375h-5q-35 89 -57.5 136.5t-44.5 81.5q-42 64 -89.5 95t-104.5 31q-60 0 -98 -28.5t-38 -75.5q0 -53 39 -85.5t134 -54.5l47 -11q108 -25 163.5 -86
t55.5 -153q0 -102 -88 -172t-202 -70q-38 0 -71.5 8.5t-80.5 34.5q-34 18 -51 23.5t-35 5.5q-24 0 -35.5 -15t-14.5 -65h-5l-20 415h5q41 -136 58.5 -179t35.5 -77q41 -73 94.5 -108.5t120.5 -35.5q62 0 104 29.5t42 78.5q0 52 -40 82.5t-133 52.5l-47 11q-98 23 -156 87.5
t-58 156.5z" />
    <glyph glyph-name="S" unicode="&#x218;" horiz-adv-x="692" 
d="M69 492q0 102 82.5 170t191.5 68q36 0 68.5 -8t76.5 -30q22 -12 32 -15t18 -3q25 0 37.5 16.5t15.5 63.5h5l48 -375h-5q-35 89 -57.5 136.5t-44.5 81.5q-42 64 -89.5 95t-104.5 31q-60 0 -98 -28.5t-38 -75.5q0 -53 39 -85.5t134 -54.5l47 -11q108 -25 163.5 -86
t55.5 -153q0 -102 -88 -172t-202 -70q-38 0 -71.5 8.5t-80.5 34.5q-34 18 -51 23.5t-35 5.5q-24 0 -35.5 -15t-14.5 -65h-5l-20 415h5q41 -136 58.5 -179t35.5 -77q41 -73 94.5 -108.5t120.5 -35.5q62 0 104 29.5t42 78.5q0 52 -40 82.5t-133 52.5l-47 11q-98 23 -156 87.5
t-58 156.5z" />
    <glyph glyph-name="S" unicode="&#x160;" horiz-adv-x="692" 
d="M69 492q0 102 82.5 170t191.5 68q36 0 68.5 -8t76.5 -30q22 -12 32 -15t18 -3q25 0 37.5 16.5t15.5 63.5h5l48 -375h-5q-35 89 -57.5 136.5t-44.5 81.5q-42 64 -89.5 95t-104.5 31q-60 0 -98 -28.5t-38 -75.5q0 -53 39 -85.5t134 -54.5l47 -11q108 -25 163.5 -86
t55.5 -153q0 -102 -88 -172t-202 -70q-38 0 -71.5 8.5t-80.5 34.5q-34 18 -51 23.5t-35 5.5q-24 0 -35.5 -15t-14.5 -65h-5l-20 415h5q41 -136 58.5 -179t35.5 -77q41 -73 94.5 -108.5t120.5 -35.5q62 0 104 29.5t42 78.5q0 52 -40 82.5t-133 52.5l-47 11q-98 23 -156 87.5
t-58 156.5z" />
    <glyph glyph-name="S" unicode="&#x15e;" horiz-adv-x="692" 
d="M69 492q0 102 82.5 170t191.5 68q36 0 68.5 -8t76.5 -30q22 -12 32 -15t18 -3q25 0 37.5 16.5t15.5 63.5h5l48 -375h-5q-35 89 -57.5 136.5t-44.5 81.5q-42 64 -89.5 95t-104.5 31q-60 0 -98 -28.5t-38 -75.5q0 -53 39 -85.5t134 -54.5l47 -11q108 -25 163.5 -86
t55.5 -153q0 -102 -88 -172t-202 -70q-38 0 -71.5 8.5t-80.5 34.5q-34 18 -51 23.5t-35 5.5q-24 0 -35.5 -15t-14.5 -65h-5l-20 415h5q41 -136 58.5 -179t35.5 -77q41 -73 94.5 -108.5t120.5 -35.5q62 0 104 29.5t42 78.5q0 52 -40 82.5t-133 52.5l-47 11q-98 23 -156 87.5
t-58 156.5z" />
    <glyph glyph-name="S" unicode="&#x15c;" horiz-adv-x="692" 
d="M69 492q0 102 82.5 170t191.5 68q36 0 68.5 -8t76.5 -30q22 -12 32 -15t18 -3q25 0 37.5 16.5t15.5 63.5h5l48 -375h-5q-35 89 -57.5 136.5t-44.5 81.5q-42 64 -89.5 95t-104.5 31q-60 0 -98 -28.5t-38 -75.5q0 -53 39 -85.5t134 -54.5l47 -11q108 -25 163.5 -86
t55.5 -153q0 -102 -88 -172t-202 -70q-38 0 -71.5 8.5t-80.5 34.5q-34 18 -51 23.5t-35 5.5q-24 0 -35.5 -15t-14.5 -65h-5l-20 415h5q41 -136 58.5 -179t35.5 -77q41 -73 94.5 -108.5t120.5 -35.5q62 0 104 29.5t42 78.5q0 52 -40 82.5t-133 52.5l-47 11q-98 23 -156 87.5
t-58 156.5z" />
    <glyph glyph-name="S" unicode="&#x15a;" horiz-adv-x="692" 
d="M69 492q0 102 82.5 170t191.5 68q36 0 68.5 -8t76.5 -30q22 -12 32 -15t18 -3q25 0 37.5 16.5t15.5 63.5h5l48 -375h-5q-35 89 -57.5 136.5t-44.5 81.5q-42 64 -89.5 95t-104.5 31q-60 0 -98 -28.5t-38 -75.5q0 -53 39 -85.5t134 -54.5l47 -11q108 -25 163.5 -86
t55.5 -153q0 -102 -88 -172t-202 -70q-38 0 -71.5 8.5t-80.5 34.5q-34 18 -51 23.5t-35 5.5q-24 0 -35.5 -15t-14.5 -65h-5l-20 415h5q41 -136 58.5 -179t35.5 -77q41 -73 94.5 -108.5t120.5 -35.5q62 0 104 29.5t42 78.5q0 52 -40 82.5t-133 52.5l-47 11q-98 23 -156 87.5
t-58 156.5z" />
    <glyph glyph-name="T" unicode="T" horiz-adv-x="818" 
d="M639 0h-460v4q46 7 70.5 22.5t35.5 44.5q8 19 11 48t3 85v503q-89 0 -157.5 -70.5t-139.5 -246.5h-4l62 385h3q52 -40 97 -51.5t124 -11.5h250q79 0 124 11.5t97 51.5h3l62 -385h-4q-71 176 -139.5 246.5t-157.5 70.5v-503q0 -56 3 -85t11 -48q11 -29 35.5 -44.5
t70.5 -22.5v-4z" />
    <glyph glyph-name="T" unicode="&#x21a;" horiz-adv-x="818" 
d="M639 0h-460v4q46 7 70.5 22.5t35.5 44.5q8 19 11 48t3 85v503q-89 0 -157.5 -70.5t-139.5 -246.5h-4l62 385h3q52 -40 97 -51.5t124 -11.5h250q79 0 124 11.5t97 51.5h3l62 -385h-4q-71 176 -139.5 246.5t-157.5 70.5v-503q0 -56 3 -85t11 -48q11 -29 35.5 -44.5
t70.5 -22.5v-4z" />
    <glyph glyph-name="T" unicode="&#x166;" horiz-adv-x="818" 
d="M639 0h-460v4q46 7 70.5 22.5t35.5 44.5q8 19 11 48t3 85v503q-89 0 -157.5 -70.5t-139.5 -246.5h-4l62 385h3q52 -40 97 -51.5t124 -11.5h250q79 0 124 11.5t97 51.5h3l62 -385h-4q-71 176 -139.5 246.5t-157.5 70.5v-503q0 -56 3 -85t11 -48q11 -29 35.5 -44.5
t70.5 -22.5v-4z" />
    <glyph glyph-name="T" unicode="&#x164;" horiz-adv-x="818" 
d="M639 0h-460v4q46 7 70.5 22.5t35.5 44.5q8 19 11 48t3 85v503q-89 0 -157.5 -70.5t-139.5 -246.5h-4l62 385h3q52 -40 97 -51.5t124 -11.5h250q79 0 124 11.5t97 51.5h3l62 -385h-4q-71 176 -139.5 246.5t-157.5 70.5v-503q0 -56 3 -85t11 -48q11 -29 35.5 -44.5
t70.5 -22.5v-4z" />
    <glyph glyph-name="T" unicode="&#x162;" horiz-adv-x="818" 
d="M639 0h-460v4q46 7 70.5 22.5t35.5 44.5q8 19 11 48t3 85v503q-89 0 -157.5 -70.5t-139.5 -246.5h-4l62 385h3q52 -40 97 -51.5t124 -11.5h250q79 0 124 11.5t97 51.5h3l62 -385h-4q-71 176 -139.5 246.5t-157.5 70.5v-503q0 -56 3 -85t11 -48q11 -29 35.5 -44.5
t70.5 -22.5v-4z" />
    <glyph glyph-name="U" unicode="U" horiz-adv-x="820" 
d="M497 24q103 0 161 81t58 227v43q0 54 -20 108t-58 102q-41 52 -92.5 86t-94.5 37v4h390v-4q-55 -5 -86 -94.5t-31 -238.5v-43q0 -170 -79 -258.5t-233 -88.5q-158 0 -238.5 75.5t-80.5 221.5v192q0 44 -2.5 89t-6.5 76q-4 32 -21 46.5t-67 22.5v4h400v-4
q-53 -9 -68 -29.5t-15 -66.5v-318q0 -128 48.5 -199t135.5 -71z" />
    <glyph glyph-name="U" unicode="&#x1ee4;" horiz-adv-x="820" 
d="M497 24q103 0 161 81t58 227v43q0 54 -20 108t-58 102q-41 52 -92.5 86t-94.5 37v4h390v-4q-55 -5 -86 -94.5t-31 -238.5v-43q0 -170 -79 -258.5t-233 -88.5q-158 0 -238.5 75.5t-80.5 221.5v192q0 44 -2.5 89t-6.5 76q-4 32 -21 46.5t-67 22.5v4h400v-4
q-53 -9 -68 -29.5t-15 -66.5v-318q0 -128 48.5 -199t135.5 -71z" />
    <glyph glyph-name="U" unicode="&#x172;" horiz-adv-x="820" 
d="M497 24q103 0 161 81t58 227v43q0 54 -20 108t-58 102q-41 52 -92.5 86t-94.5 37v4h390v-4q-55 -5 -86 -94.5t-31 -238.5v-43q0 -170 -79 -258.5t-233 -88.5q-158 0 -238.5 75.5t-80.5 221.5v192q0 44 -2.5 89t-6.5 76q-4 32 -21 46.5t-67 22.5v4h400v-4
q-53 -9 -68 -29.5t-15 -66.5v-318q0 -128 48.5 -199t135.5 -71z" />
    <glyph glyph-name="U" unicode="&#x170;" horiz-adv-x="820" 
d="M497 24q103 0 161 81t58 227v43q0 54 -20 108t-58 102q-41 52 -92.5 86t-94.5 37v4h390v-4q-55 -5 -86 -94.5t-31 -238.5v-43q0 -170 -79 -258.5t-233 -88.5q-158 0 -238.5 75.5t-80.5 221.5v192q0 44 -2.5 89t-6.5 76q-4 32 -21 46.5t-67 22.5v4h400v-4
q-53 -9 -68 -29.5t-15 -66.5v-318q0 -128 48.5 -199t135.5 -71z" />
    <glyph glyph-name="U" unicode="&#x16e;" horiz-adv-x="820" 
d="M497 24q103 0 161 81t58 227v43q0 54 -20 108t-58 102q-41 52 -92.5 86t-94.5 37v4h390v-4q-55 -5 -86 -94.5t-31 -238.5v-43q0 -170 -79 -258.5t-233 -88.5q-158 0 -238.5 75.5t-80.5 221.5v192q0 44 -2.5 89t-6.5 76q-4 32 -21 46.5t-67 22.5v4h400v-4
q-53 -9 -68 -29.5t-15 -66.5v-318q0 -128 48.5 -199t135.5 -71z" />
    <glyph glyph-name="U" unicode="&#x16c;" horiz-adv-x="820" 
d="M497 24q103 0 161 81t58 227v43q0 54 -20 108t-58 102q-41 52 -92.5 86t-94.5 37v4h390v-4q-55 -5 -86 -94.5t-31 -238.5v-43q0 -170 -79 -258.5t-233 -88.5q-158 0 -238.5 75.5t-80.5 221.5v192q0 44 -2.5 89t-6.5 76q-4 32 -21 46.5t-67 22.5v4h400v-4
q-53 -9 -68 -29.5t-15 -66.5v-318q0 -128 48.5 -199t135.5 -71z" />
    <glyph glyph-name="U" unicode="&#x16a;" horiz-adv-x="820" 
d="M497 24q103 0 161 81t58 227v43q0 54 -20 108t-58 102q-41 52 -92.5 86t-94.5 37v4h390v-4q-55 -5 -86 -94.5t-31 -238.5v-43q0 -170 -79 -258.5t-233 -88.5q-158 0 -238.5 75.5t-80.5 221.5v192q0 44 -2.5 89t-6.5 76q-4 32 -21 46.5t-67 22.5v4h400v-4
q-53 -9 -68 -29.5t-15 -66.5v-318q0 -128 48.5 -199t135.5 -71z" />
    <glyph glyph-name="U" unicode="&#x168;" horiz-adv-x="820" 
d="M497 24q103 0 161 81t58 227v43q0 54 -20 108t-58 102q-41 52 -92.5 86t-94.5 37v4h390v-4q-55 -5 -86 -94.5t-31 -238.5v-43q0 -170 -79 -258.5t-233 -88.5q-158 0 -238.5 75.5t-80.5 221.5v192q0 44 -2.5 89t-6.5 76q-4 32 -21 46.5t-67 22.5v4h400v-4
q-53 -9 -68 -29.5t-15 -66.5v-318q0 -128 48.5 -199t135.5 -71z" />
    <glyph glyph-name="U" unicode="&#xdc;" horiz-adv-x="820" 
d="M497 24q103 0 161 81t58 227v43q0 54 -20 108t-58 102q-41 52 -92.5 86t-94.5 37v4h390v-4q-55 -5 -86 -94.5t-31 -238.5v-43q0 -170 -79 -258.5t-233 -88.5q-158 0 -238.5 75.5t-80.5 221.5v192q0 44 -2.5 89t-6.5 76q-4 32 -21 46.5t-67 22.5v4h400v-4
q-53 -9 -68 -29.5t-15 -66.5v-318q0 -128 48.5 -199t135.5 -71z" />
    <glyph glyph-name="U" unicode="&#xdb;" horiz-adv-x="820" 
d="M497 24q103 0 161 81t58 227v43q0 54 -20 108t-58 102q-41 52 -92.5 86t-94.5 37v4h390v-4q-55 -5 -86 -94.5t-31 -238.5v-43q0 -170 -79 -258.5t-233 -88.5q-158 0 -238.5 75.5t-80.5 221.5v192q0 44 -2.5 89t-6.5 76q-4 32 -21 46.5t-67 22.5v4h400v-4
q-53 -9 -68 -29.5t-15 -66.5v-318q0 -128 48.5 -199t135.5 -71z" />
    <glyph glyph-name="U" unicode="&#xda;" horiz-adv-x="820" 
d="M497 24q103 0 161 81t58 227v43q0 54 -20 108t-58 102q-41 52 -92.5 86t-94.5 37v4h390v-4q-55 -5 -86 -94.5t-31 -238.5v-43q0 -170 -79 -258.5t-233 -88.5q-158 0 -238.5 75.5t-80.5 221.5v192q0 44 -2.5 89t-6.5 76q-4 32 -21 46.5t-67 22.5v4h400v-4
q-53 -9 -68 -29.5t-15 -66.5v-318q0 -128 48.5 -199t135.5 -71z" />
    <glyph glyph-name="U" unicode="&#xd9;" horiz-adv-x="820" 
d="M497 24q103 0 161 81t58 227v43q0 54 -20 108t-58 102q-41 52 -92.5 86t-94.5 37v4h390v-4q-55 -5 -86 -94.5t-31 -238.5v-43q0 -170 -79 -258.5t-233 -88.5q-158 0 -238.5 75.5t-80.5 221.5v192q0 44 -2.5 89t-6.5 76q-4 32 -21 46.5t-67 22.5v4h400v-4
q-53 -9 -68 -29.5t-15 -66.5v-318q0 -128 48.5 -199t135.5 -71z" />
    <glyph glyph-name="V" unicode="V" horiz-adv-x="784" 
d="M629 466l-242 -491h-4l-311 663q-15 35 -35.5 50t-59.5 20v4h408v-4q-59 -6 -71 -25t9 -66l176 -395l101 205q25 51 22 99t-34 89q-29 39 -76.5 65t-92.5 28v4h415v-4q-44 -4 -96.5 -66t-108.5 -176z" />
    <glyph glyph-name="W" unicode="W" horiz-adv-x="1141" 
d="M-27 708v4h1216v-4q-46 -4 -100.5 -68t-104.5 -174l-221 -491h-4l-182 422l-193 -422h-5l-311 663q-15 35 -35.5 50t-59.5 20zM363 706q-49 0 -58.5 -16t14.5 -73l170 -394l84 185l-99 230q-16 37 -41.5 52.5t-69.5 15.5zM940 620q-31 39 -79.5 62.5t-97.5 23.5
q-30 0 -43 -5t-14 -18q-1 -8 2 -20t16 -46l146 -383l88 195q24 52 19 101.5t-37 89.5z" />
    <glyph glyph-name="W" unicode="&#x1e84;" horiz-adv-x="1141" 
d="M-27 708v4h1216v-4q-46 -4 -100.5 -68t-104.5 -174l-221 -491h-4l-182 422l-193 -422h-5l-311 663q-15 35 -35.5 50t-59.5 20zM363 706q-49 0 -58.5 -16t14.5 -73l170 -394l84 185l-99 230q-16 37 -41.5 52.5t-69.5 15.5zM940 620q-31 39 -79.5 62.5t-97.5 23.5
q-30 0 -43 -5t-14 -18q-1 -8 2 -20t16 -46l146 -383l88 195q24 52 19 101.5t-37 89.5z" />
    <glyph glyph-name="W" unicode="&#x1e82;" horiz-adv-x="1141" 
d="M-27 708v4h1216v-4q-46 -4 -100.5 -68t-104.5 -174l-221 -491h-4l-182 422l-193 -422h-5l-311 663q-15 35 -35.5 50t-59.5 20zM363 706q-49 0 -58.5 -16t14.5 -73l170 -394l84 185l-99 230q-16 37 -41.5 52.5t-69.5 15.5zM940 620q-31 39 -79.5 62.5t-97.5 23.5
q-30 0 -43 -5t-14 -18q-1 -8 2 -20t16 -46l146 -383l88 195q24 52 19 101.5t-37 89.5z" />
    <glyph glyph-name="W" unicode="&#x1e80;" horiz-adv-x="1141" 
d="M-27 708v4h1216v-4q-46 -4 -100.5 -68t-104.5 -174l-221 -491h-4l-182 422l-193 -422h-5l-311 663q-15 35 -35.5 50t-59.5 20zM363 706q-49 0 -58.5 -16t14.5 -73l170 -394l84 185l-99 230q-16 37 -41.5 52.5t-69.5 15.5zM940 620q-31 39 -79.5 62.5t-97.5 23.5
q-30 0 -43 -5t-14 -18q-1 -8 2 -20t16 -46l146 -383l88 195q24 52 19 101.5t-37 89.5z" />
    <glyph glyph-name="W" unicode="&#x174;" horiz-adv-x="1141" 
d="M-27 708v4h1216v-4q-46 -4 -100.5 -68t-104.5 -174l-221 -491h-4l-182 422l-193 -422h-5l-311 663q-15 35 -35.5 50t-59.5 20zM363 706q-49 0 -58.5 -16t14.5 -73l170 -394l84 185l-99 230q-16 37 -41.5 52.5t-69.5 15.5zM940 620q-31 39 -79.5 62.5t-97.5 23.5
q-30 0 -43 -5t-14 -18q-1 -8 2 -20t16 -46l146 -383l88 195q24 52 19 101.5t-37 89.5z" />
    <glyph glyph-name="X" unicode="X" horiz-adv-x="883" 
d="M346 254l22 26l-267 358q-26 36 -49.5 51t-55.5 19v4h422v-4q-49 -4 -61 -23t13 -52l142 -189l16 19q84 100 68 162t-140 83v4h450v-4q-79 -10 -179.5 -76t-192.5 -174l-18 -21l272 -363q27 -37 50 -52t55 -18v-4h-422v4q49 3 61 22.5t-13 52.5l-146 195l-21 -25
q-86 -102 -67 -165t139 -80v-4h-450v4q76 8 177.5 74t194.5 176z" />
    <glyph glyph-name="Y" unicode="Y" horiz-adv-x="782" 
d="M270 71q8 19 11 48t3 85v46l-206 388q-14 26 -41.5 44.5t-61.5 25.5v4h411v-4q-50 -7 -61.5 -29t7.5 -62l165 -342l55 107q32 63 39.5 116.5t-11.5 96.5q-20 48 -68 78t-110 35v4h408v-4q-43 -5 -97 -72.5t-130 -212.5l-79 -150v-69q0 -56 3 -85t11 -48
q11 -29 35.5 -44.5t70.5 -22.5v-4h-460v4q46 7 70.5 22.5t35.5 44.5z" />
    <glyph glyph-name="Y" unicode="&#x1ef2;" horiz-adv-x="782" 
d="M270 71q8 19 11 48t3 85v46l-206 388q-14 26 -41.5 44.5t-61.5 25.5v4h411v-4q-50 -7 -61.5 -29t7.5 -62l165 -342l55 107q32 63 39.5 116.5t-11.5 96.5q-20 48 -68 78t-110 35v4h408v-4q-43 -5 -97 -72.5t-130 -212.5l-79 -150v-69q0 -56 3 -85t11 -48
q11 -29 35.5 -44.5t70.5 -22.5v-4h-460v4q46 7 70.5 22.5t35.5 44.5z" />
    <glyph glyph-name="Y" unicode="&#x232;" horiz-adv-x="782" 
d="M270 71q8 19 11 48t3 85v46l-206 388q-14 26 -41.5 44.5t-61.5 25.5v4h411v-4q-50 -7 -61.5 -29t7.5 -62l165 -342l55 107q32 63 39.5 116.5t-11.5 96.5q-20 48 -68 78t-110 35v4h408v-4q-43 -5 -97 -72.5t-130 -212.5l-79 -150v-69q0 -56 3 -85t11 -48
q11 -29 35.5 -44.5t70.5 -22.5v-4h-460v4q46 7 70.5 22.5t35.5 44.5z" />
    <glyph glyph-name="Y" unicode="&#x178;" horiz-adv-x="782" 
d="M270 71q8 19 11 48t3 85v46l-206 388q-14 26 -41.5 44.5t-61.5 25.5v4h411v-4q-50 -7 -61.5 -29t7.5 -62l165 -342l55 107q32 63 39.5 116.5t-11.5 96.5q-20 48 -68 78t-110 35v4h408v-4q-43 -5 -97 -72.5t-130 -212.5l-79 -150v-69q0 -56 3 -85t11 -48
q11 -29 35.5 -44.5t70.5 -22.5v-4h-460v4q46 7 70.5 22.5t35.5 44.5z" />
    <glyph glyph-name="Y" unicode="&#x176;" horiz-adv-x="782" 
d="M270 71q8 19 11 48t3 85v46l-206 388q-14 26 -41.5 44.5t-61.5 25.5v4h411v-4q-50 -7 -61.5 -29t7.5 -62l165 -342l55 107q32 63 39.5 116.5t-11.5 96.5q-20 48 -68 78t-110 35v4h408v-4q-43 -5 -97 -72.5t-130 -212.5l-79 -150v-69q0 -56 3 -85t11 -48
q11 -29 35.5 -44.5t70.5 -22.5v-4h-460v4q46 7 70.5 22.5t35.5 44.5z" />
    <glyph glyph-name="Y" unicode="&#xdd;" horiz-adv-x="782" 
d="M270 71q8 19 11 48t3 85v46l-206 388q-14 26 -41.5 44.5t-61.5 25.5v4h411v-4q-50 -7 -61.5 -29t7.5 -62l165 -342l55 107q32 63 39.5 116.5t-11.5 96.5q-20 48 -68 78t-110 35v4h408v-4q-43 -5 -97 -72.5t-130 -212.5l-79 -150v-69q0 -56 3 -85t11 -48
q11 -29 35.5 -44.5t70.5 -22.5v-4h-460v4q46 7 70.5 22.5t35.5 44.5z" />
    <glyph glyph-name="Z" unicode="Z" horiz-adv-x="762" 
d="M639 0h-628l469 707q-55 0 -129 -27t-144 -74q-69 -46 -119 -101t-74 -114l-5 -2l119 323h612l-470 -707q55 0 132 27.5t149 73.5q74 47 126 102.5t76 114.5h5z" />
    <glyph glyph-name="Z" unicode="&#x17d;" horiz-adv-x="762" 
d="M639 0h-628l469 707q-55 0 -129 -27t-144 -74q-69 -46 -119 -101t-74 -114l-5 -2l119 323h612l-470 -707q55 0 132 27.5t149 73.5q74 47 126 102.5t76 114.5h5z" />
    <glyph glyph-name="Z" unicode="&#x17b;" horiz-adv-x="762" 
d="M639 0h-628l469 707q-55 0 -129 -27t-144 -74q-69 -46 -119 -101t-74 -114l-5 -2l119 323h612l-470 -707q55 0 132 27.5t149 73.5q74 47 126 102.5t76 114.5h5z" />
    <glyph glyph-name="Z" unicode="&#x179;" horiz-adv-x="762" 
d="M639 0h-628l469 707q-55 0 -129 -27t-144 -74q-69 -46 -119 -101t-74 -114l-5 -2l119 323h612l-470 -707q55 0 132 27.5t149 73.5q74 47 126 102.5t76 114.5h5z" />
    <glyph glyph-name="a" unicode="a" horiz-adv-x="554" 
d="M501 77q5 -14 18 -20.5t40 -8.5v-4q-42 -27 -84 -42t-78 -15q-51 0 -71.5 27.5t-21.5 95.5q-19 -61 -58 -92t-97 -31t-94.5 36t-36.5 95q0 52 36 91.5t137 90.5q17 9 43 21.5t35 16.5q24 13 31.5 26t7.5 43q0 44 -21.5 74t-54.5 30q-22 0 -29.5 -8.5t-0.5 -33.5
q11 -39 12 -48t1 -17q0 -49 -30 -79t-76 -30q-40 0 -64.5 22.5t-24.5 58.5q0 59 89 104t202 45q93 0 143 -46.5t48 -134.5l-4 -198q-1 -46 0 -54.5t3 -14.5zM209 193q0 -49 29.5 -71.5t65.5 -4.5v5l3 231q-48 -25 -73 -66t-25 -94z" />
    <glyph glyph-name="a" unicode="&#x105;" horiz-adv-x="554" 
d="M501 77q5 -14 18 -20.5t40 -8.5v-4q-42 -27 -84 -42t-78 -15q-51 0 -71.5 27.5t-21.5 95.5q-19 -61 -58 -92t-97 -31t-94.5 36t-36.5 95q0 52 36 91.5t137 90.5q17 9 43 21.5t35 16.5q24 13 31.5 26t7.5 43q0 44 -21.5 74t-54.5 30q-22 0 -29.5 -8.5t-0.5 -33.5
q11 -39 12 -48t1 -17q0 -49 -30 -79t-76 -30q-40 0 -64.5 22.5t-24.5 58.5q0 59 89 104t202 45q93 0 143 -46.5t48 -134.5l-4 -198q-1 -46 0 -54.5t3 -14.5zM209 193q0 -49 29.5 -71.5t65.5 -4.5v5l3 231q-48 -25 -73 -66t-25 -94z" />
    <glyph glyph-name="a" unicode="&#x103;" horiz-adv-x="554" 
d="M501 77q5 -14 18 -20.5t40 -8.5v-4q-42 -27 -84 -42t-78 -15q-51 0 -71.5 27.5t-21.5 95.5q-19 -61 -58 -92t-97 -31t-94.5 36t-36.5 95q0 52 36 91.5t137 90.5q17 9 43 21.5t35 16.5q24 13 31.5 26t7.5 43q0 44 -21.5 74t-54.5 30q-22 0 -29.5 -8.5t-0.5 -33.5
q11 -39 12 -48t1 -17q0 -49 -30 -79t-76 -30q-40 0 -64.5 22.5t-24.5 58.5q0 59 89 104t202 45q93 0 143 -46.5t48 -134.5l-4 -198q-1 -46 0 -54.5t3 -14.5zM209 193q0 -49 29.5 -71.5t65.5 -4.5v5l3 231q-48 -25 -73 -66t-25 -94z" />
    <glyph glyph-name="a" unicode="&#x101;" horiz-adv-x="554" 
d="M501 77q5 -14 18 -20.5t40 -8.5v-4q-42 -27 -84 -42t-78 -15q-51 0 -71.5 27.5t-21.5 95.5q-19 -61 -58 -92t-97 -31t-94.5 36t-36.5 95q0 52 36 91.5t137 90.5q17 9 43 21.5t35 16.5q24 13 31.5 26t7.5 43q0 44 -21.5 74t-54.5 30q-22 0 -29.5 -8.5t-0.5 -33.5
q11 -39 12 -48t1 -17q0 -49 -30 -79t-76 -30q-40 0 -64.5 22.5t-24.5 58.5q0 59 89 104t202 45q93 0 143 -46.5t48 -134.5l-4 -198q-1 -46 0 -54.5t3 -14.5zM209 193q0 -49 29.5 -71.5t65.5 -4.5v5l3 231q-48 -25 -73 -66t-25 -94z" />
    <glyph glyph-name="a" unicode="&#xe6;" horiz-adv-x="554" 
d="M501 77q5 -14 18 -20.5t40 -8.5v-4q-42 -27 -84 -42t-78 -15q-51 0 -71.5 27.5t-21.5 95.5q-19 -61 -58 -92t-97 -31t-94.5 36t-36.5 95q0 52 36 91.5t137 90.5q17 9 43 21.5t35 16.5q24 13 31.5 26t7.5 43q0 44 -21.5 74t-54.5 30q-22 0 -29.5 -8.5t-0.5 -33.5
q11 -39 12 -48t1 -17q0 -49 -30 -79t-76 -30q-40 0 -64.5 22.5t-24.5 58.5q0 59 89 104t202 45q93 0 143 -46.5t48 -134.5l-4 -198q-1 -46 0 -54.5t3 -14.5zM209 193q0 -49 29.5 -71.5t65.5 -4.5v5l3 231q-48 -25 -73 -66t-25 -94z" />
    <glyph glyph-name="a" unicode="&#xe5;" horiz-adv-x="554" 
d="M501 77q5 -14 18 -20.5t40 -8.5v-4q-42 -27 -84 -42t-78 -15q-51 0 -71.5 27.5t-21.5 95.5q-19 -61 -58 -92t-97 -31t-94.5 36t-36.5 95q0 52 36 91.5t137 90.5q17 9 43 21.5t35 16.5q24 13 31.5 26t7.5 43q0 44 -21.5 74t-54.5 30q-22 0 -29.5 -8.5t-0.5 -33.5
q11 -39 12 -48t1 -17q0 -49 -30 -79t-76 -30q-40 0 -64.5 22.5t-24.5 58.5q0 59 89 104t202 45q93 0 143 -46.5t48 -134.5l-4 -198q-1 -46 0 -54.5t3 -14.5zM209 193q0 -49 29.5 -71.5t65.5 -4.5v5l3 231q-48 -25 -73 -66t-25 -94z" />
    <glyph glyph-name="a" unicode="&#xe4;" horiz-adv-x="554" 
d="M501 77q5 -14 18 -20.5t40 -8.5v-4q-42 -27 -84 -42t-78 -15q-51 0 -71.5 27.5t-21.5 95.5q-19 -61 -58 -92t-97 -31t-94.5 36t-36.5 95q0 52 36 91.5t137 90.5q17 9 43 21.5t35 16.5q24 13 31.5 26t7.5 43q0 44 -21.5 74t-54.5 30q-22 0 -29.5 -8.5t-0.5 -33.5
q11 -39 12 -48t1 -17q0 -49 -30 -79t-76 -30q-40 0 -64.5 22.5t-24.5 58.5q0 59 89 104t202 45q93 0 143 -46.5t48 -134.5l-4 -198q-1 -46 0 -54.5t3 -14.5zM209 193q0 -49 29.5 -71.5t65.5 -4.5v5l3 231q-48 -25 -73 -66t-25 -94z" />
    <glyph glyph-name="a" unicode="&#xe3;" horiz-adv-x="554" 
d="M501 77q5 -14 18 -20.5t40 -8.5v-4q-42 -27 -84 -42t-78 -15q-51 0 -71.5 27.5t-21.5 95.5q-19 -61 -58 -92t-97 -31t-94.5 36t-36.5 95q0 52 36 91.5t137 90.5q17 9 43 21.5t35 16.5q24 13 31.5 26t7.5 43q0 44 -21.5 74t-54.5 30q-22 0 -29.5 -8.5t-0.5 -33.5
q11 -39 12 -48t1 -17q0 -49 -30 -79t-76 -30q-40 0 -64.5 22.5t-24.5 58.5q0 59 89 104t202 45q93 0 143 -46.5t48 -134.5l-4 -198q-1 -46 0 -54.5t3 -14.5zM209 193q0 -49 29.5 -71.5t65.5 -4.5v5l3 231q-48 -25 -73 -66t-25 -94z" />
    <glyph glyph-name="a" unicode="&#xe2;" horiz-adv-x="554" 
d="M501 77q5 -14 18 -20.5t40 -8.5v-4q-42 -27 -84 -42t-78 -15q-51 0 -71.5 27.5t-21.5 95.5q-19 -61 -58 -92t-97 -31t-94.5 36t-36.5 95q0 52 36 91.5t137 90.5q17 9 43 21.5t35 16.5q24 13 31.5 26t7.5 43q0 44 -21.5 74t-54.5 30q-22 0 -29.5 -8.5t-0.5 -33.5
q11 -39 12 -48t1 -17q0 -49 -30 -79t-76 -30q-40 0 -64.5 22.5t-24.5 58.5q0 59 89 104t202 45q93 0 143 -46.5t48 -134.5l-4 -198q-1 -46 0 -54.5t3 -14.5zM209 193q0 -49 29.5 -71.5t65.5 -4.5v5l3 231q-48 -25 -73 -66t-25 -94z" />
    <glyph glyph-name="a" unicode="&#xe1;" horiz-adv-x="554" 
d="M501 77q5 -14 18 -20.5t40 -8.5v-4q-42 -27 -84 -42t-78 -15q-51 0 -71.5 27.5t-21.5 95.5q-19 -61 -58 -92t-97 -31t-94.5 36t-36.5 95q0 52 36 91.5t137 90.5q17 9 43 21.5t35 16.5q24 13 31.5 26t7.5 43q0 44 -21.5 74t-54.5 30q-22 0 -29.5 -8.5t-0.5 -33.5
q11 -39 12 -48t1 -17q0 -49 -30 -79t-76 -30q-40 0 -64.5 22.5t-24.5 58.5q0 59 89 104t202 45q93 0 143 -46.5t48 -134.5l-4 -198q-1 -46 0 -54.5t3 -14.5zM209 193q0 -49 29.5 -71.5t65.5 -4.5v5l3 231q-48 -25 -73 -66t-25 -94z" />
    <glyph glyph-name="a" unicode="&#xe0;" horiz-adv-x="554" 
d="M501 77q5 -14 18 -20.5t40 -8.5v-4q-42 -27 -84 -42t-78 -15q-51 0 -71.5 27.5t-21.5 95.5q-19 -61 -58 -92t-97 -31t-94.5 36t-36.5 95q0 52 36 91.5t137 90.5q17 9 43 21.5t35 16.5q24 13 31.5 26t7.5 43q0 44 -21.5 74t-54.5 30q-22 0 -29.5 -8.5t-0.5 -33.5
q11 -39 12 -48t1 -17q0 -49 -30 -79t-76 -30q-40 0 -64.5 22.5t-24.5 58.5q0 59 89 104t202 45q93 0 143 -46.5t48 -134.5l-4 -198q-1 -46 0 -54.5t3 -14.5zM209 193q0 -49 29.5 -71.5t65.5 -4.5v5l3 231q-48 -25 -73 -66t-25 -94z" />
    <glyph glyph-name="b" unicode="b" horiz-adv-x="605" 
d="M47 -24v527q0 104 -7 127t-33 38v4q63 18 124 50.5t117 78.5v-413q23 65 64 101t94 36q79 0 132 -66.5t53 -164.5q0 -64 -19 -118t-56 -96q-39 -44 -93 -68.5t-111 -24.5q-23 0 -66 10.5t-76 26.5zM248 383v-259q0 -63 19 -97t52 -34t52 45t19 124q0 96 -31 160.5
t-83 64.5q-8 0 -15 -1t-13 -3z" />
    <glyph glyph-name="c" unicode="c" horiz-adv-x="517" 
d="M291 433q7 60 0 73t-28 13q-35 0 -52.5 -35.5t-17.5 -105.5q0 -114 59.5 -183t150.5 -69q39 0 69.5 12.5t48.5 35.5l3 -2q-34 -96 -93.5 -140.5t-148.5 -44.5q-122 0 -195.5 72t-73.5 194q0 114 77 193t185 79q96 0 155 -40.5t59 -108.5q0 -42 -27 -71t-69 -29
q-57 0 -83.5 42.5t-18.5 114.5z" />
    <glyph glyph-name="c" unicode="&#x10d;" horiz-adv-x="517" 
d="M291 433q7 60 0 73t-28 13q-35 0 -52.5 -35.5t-17.5 -105.5q0 -114 59.5 -183t150.5 -69q39 0 69.5 12.5t48.5 35.5l3 -2q-34 -96 -93.5 -140.5t-148.5 -44.5q-122 0 -195.5 72t-73.5 194q0 114 77 193t185 79q96 0 155 -40.5t59 -108.5q0 -42 -27 -71t-69 -29
q-57 0 -83.5 42.5t-18.5 114.5z" />
    <glyph glyph-name="c" unicode="&#x10b;" horiz-adv-x="517" 
d="M291 433q7 60 0 73t-28 13q-35 0 -52.5 -35.5t-17.5 -105.5q0 -114 59.5 -183t150.5 -69q39 0 69.5 12.5t48.5 35.5l3 -2q-34 -96 -93.5 -140.5t-148.5 -44.5q-122 0 -195.5 72t-73.5 194q0 114 77 193t185 79q96 0 155 -40.5t59 -108.5q0 -42 -27 -71t-69 -29
q-57 0 -83.5 42.5t-18.5 114.5z" />
    <glyph glyph-name="c" unicode="&#x109;" horiz-adv-x="517" 
d="M291 433q7 60 0 73t-28 13q-35 0 -52.5 -35.5t-17.5 -105.5q0 -114 59.5 -183t150.5 -69q39 0 69.5 12.5t48.5 35.5l3 -2q-34 -96 -93.5 -140.5t-148.5 -44.5q-122 0 -195.5 72t-73.5 194q0 114 77 193t185 79q96 0 155 -40.5t59 -108.5q0 -42 -27 -71t-69 -29
q-57 0 -83.5 42.5t-18.5 114.5z" />
    <glyph glyph-name="c" unicode="&#x107;" horiz-adv-x="517" 
d="M291 433q7 60 0 73t-28 13q-35 0 -52.5 -35.5t-17.5 -105.5q0 -114 59.5 -183t150.5 -69q39 0 69.5 12.5t48.5 35.5l3 -2q-34 -96 -93.5 -140.5t-148.5 -44.5q-122 0 -195.5 72t-73.5 194q0 114 77 193t185 79q96 0 155 -40.5t59 -108.5q0 -42 -27 -71t-69 -29
q-57 0 -83.5 42.5t-18.5 114.5z" />
    <glyph glyph-name="c" unicode="&#xe7;" horiz-adv-x="517" 
d="M291 433q7 60 0 73t-28 13q-35 0 -52.5 -35.5t-17.5 -105.5q0 -114 59.5 -183t150.5 -69q39 0 69.5 12.5t48.5 35.5l3 -2q-34 -96 -93.5 -140.5t-148.5 -44.5q-122 0 -195.5 72t-73.5 194q0 114 77 193t185 79q96 0 155 -40.5t59 -108.5q0 -42 -27 -71t-69 -29
q-57 0 -83.5 42.5t-18.5 114.5z" />
    <glyph glyph-name="d" unicode="d" horiz-adv-x="615" 
d="M558 801v-627q0 -72 9.5 -96.5t37.5 -33.5v-4q-65 -5 -119 -17t-129 -41v142q-23 -65 -64 -101t-94 -36q-81 0 -133 63.5t-52 169.5q0 64 19 118t56 95q39 44 93 68t111 24q15 0 32 -1.5t32 -4.5v2q0 29 -1 49.5t-3 34.5q-3 24 -10.5 36.5t-36.5 26.5v4q66 17 129.5 49.5
t122.5 79.5zM281 519q-30 0 -48 -46t-18 -123q0 -96 31 -160.5t83 -64.5q8 0 15 1t13 3v259q0 64 -19.5 97.5t-56.5 33.5z" />
    <glyph glyph-name="d" unicode="&#x111;" horiz-adv-x="615" 
d="M558 801v-627q0 -72 9.5 -96.5t37.5 -33.5v-4q-65 -5 -119 -17t-129 -41v142q-23 -65 -64 -101t-94 -36q-81 0 -133 63.5t-52 169.5q0 64 19 118t56 95q39 44 93 68t111 24q15 0 32 -1.5t32 -4.5v2q0 29 -1 49.5t-3 34.5q-3 24 -10.5 36.5t-36.5 26.5v4q66 17 129.5 49.5
t122.5 79.5zM281 519q-30 0 -48 -46t-18 -123q0 -96 31 -160.5t83 -64.5q8 0 15 1t13 3v259q0 64 -19.5 97.5t-56.5 33.5z" />
    <glyph glyph-name="d" unicode="&#x10f;" horiz-adv-x="615" 
d="M558 801v-627q0 -72 9.5 -96.5t37.5 -33.5v-4q-65 -5 -119 -17t-129 -41v142q-23 -65 -64 -101t-94 -36q-81 0 -133 63.5t-52 169.5q0 64 19 118t56 95q39 44 93 68t111 24q15 0 32 -1.5t32 -4.5v2q0 29 -1 49.5t-3 34.5q-3 24 -10.5 36.5t-36.5 26.5v4q66 17 129.5 49.5
t122.5 79.5zM281 519q-30 0 -48 -46t-18 -123q0 -96 31 -160.5t83 -64.5q8 0 15 1t13 3v259q0 64 -19.5 97.5t-56.5 33.5z" />
    <glyph glyph-name="d" unicode="&#xf0;" horiz-adv-x="615" 
d="M558 801v-627q0 -72 9.5 -96.5t37.5 -33.5v-4q-65 -5 -119 -17t-129 -41v142q-23 -65 -64 -101t-94 -36q-81 0 -133 63.5t-52 169.5q0 64 19 118t56 95q39 44 93 68t111 24q15 0 32 -1.5t32 -4.5v2q0 29 -1 49.5t-3 34.5q-3 24 -10.5 36.5t-36.5 26.5v4q66 17 129.5 49.5
t122.5 79.5zM281 519q-30 0 -48 -46t-18 -123q0 -96 31 -160.5t83 -64.5q8 0 15 1t13 3v259q0 64 -19.5 97.5t-56.5 33.5z" />
    <glyph glyph-name="e" unicode="e" horiz-adv-x="518" 
d="M282 -13q-122 0 -195.5 72t-73.5 194q0 114 77 193t185 79q90 0 155 -47.5t81 -121.5h-317q6 -104 65 -167t144 -63q39 0 69.5 12.5t48.5 35.5l3 -2q-34 -96 -93.5 -140.5t-148.5 -44.5zM263 518q-36 0 -53 -34.5t-17 -104.5v-16h22q47 0 74.5 23.5t27.5 62.5
q0 32 -14.5 50.5t-39.5 18.5z" />
    <glyph glyph-name="e" unicode="&#x11b;" horiz-adv-x="518" 
d="M282 -13q-122 0 -195.5 72t-73.5 194q0 114 77 193t185 79q90 0 155 -47.5t81 -121.5h-317q6 -104 65 -167t144 -63q39 0 69.5 12.5t48.5 35.5l3 -2q-34 -96 -93.5 -140.5t-148.5 -44.5zM263 518q-36 0 -53 -34.5t-17 -104.5v-16h22q47 0 74.5 23.5t27.5 62.5
q0 32 -14.5 50.5t-39.5 18.5z" />
    <glyph glyph-name="e" unicode="&#x119;" horiz-adv-x="518" 
d="M282 -13q-122 0 -195.5 72t-73.5 194q0 114 77 193t185 79q90 0 155 -47.5t81 -121.5h-317q6 -104 65 -167t144 -63q39 0 69.5 12.5t48.5 35.5l3 -2q-34 -96 -93.5 -140.5t-148.5 -44.5zM263 518q-36 0 -53 -34.5t-17 -104.5v-16h22q47 0 74.5 23.5t27.5 62.5
q0 32 -14.5 50.5t-39.5 18.5z" />
    <glyph glyph-name="e" unicode="&#x117;" horiz-adv-x="518" 
d="M282 -13q-122 0 -195.5 72t-73.5 194q0 114 77 193t185 79q90 0 155 -47.5t81 -121.5h-317q6 -104 65 -167t144 -63q39 0 69.5 12.5t48.5 35.5l3 -2q-34 -96 -93.5 -140.5t-148.5 -44.5zM263 518q-36 0 -53 -34.5t-17 -104.5v-16h22q47 0 74.5 23.5t27.5 62.5
q0 32 -14.5 50.5t-39.5 18.5z" />
    <glyph glyph-name="e" unicode="&#x115;" horiz-adv-x="518" 
d="M282 -13q-122 0 -195.5 72t-73.5 194q0 114 77 193t185 79q90 0 155 -47.5t81 -121.5h-317q6 -104 65 -167t144 -63q39 0 69.5 12.5t48.5 35.5l3 -2q-34 -96 -93.5 -140.5t-148.5 -44.5zM263 518q-36 0 -53 -34.5t-17 -104.5v-16h22q47 0 74.5 23.5t27.5 62.5
q0 32 -14.5 50.5t-39.5 18.5z" />
    <glyph glyph-name="e" unicode="&#x113;" horiz-adv-x="518" 
d="M282 -13q-122 0 -195.5 72t-73.5 194q0 114 77 193t185 79q90 0 155 -47.5t81 -121.5h-317q6 -104 65 -167t144 -63q39 0 69.5 12.5t48.5 35.5l3 -2q-34 -96 -93.5 -140.5t-148.5 -44.5zM263 518q-36 0 -53 -34.5t-17 -104.5v-16h22q47 0 74.5 23.5t27.5 62.5
q0 32 -14.5 50.5t-39.5 18.5z" />
    <glyph glyph-name="e" unicode="&#xeb;" horiz-adv-x="518" 
d="M282 -13q-122 0 -195.5 72t-73.5 194q0 114 77 193t185 79q90 0 155 -47.5t81 -121.5h-317q6 -104 65 -167t144 -63q39 0 69.5 12.5t48.5 35.5l3 -2q-34 -96 -93.5 -140.5t-148.5 -44.5zM263 518q-36 0 -53 -34.5t-17 -104.5v-16h22q47 0 74.5 23.5t27.5 62.5
q0 32 -14.5 50.5t-39.5 18.5z" />
    <glyph glyph-name="e" unicode="&#xea;" horiz-adv-x="518" 
d="M282 -13q-122 0 -195.5 72t-73.5 194q0 114 77 193t185 79q90 0 155 -47.5t81 -121.5h-317q6 -104 65 -167t144 -63q39 0 69.5 12.5t48.5 35.5l3 -2q-34 -96 -93.5 -140.5t-148.5 -44.5zM263 518q-36 0 -53 -34.5t-17 -104.5v-16h22q47 0 74.5 23.5t27.5 62.5
q0 32 -14.5 50.5t-39.5 18.5z" />
    <glyph glyph-name="e" unicode="&#xe9;" horiz-adv-x="518" 
d="M282 -13q-122 0 -195.5 72t-73.5 194q0 114 77 193t185 79q90 0 155 -47.5t81 -121.5h-317q6 -104 65 -167t144 -63q39 0 69.5 12.5t48.5 35.5l3 -2q-34 -96 -93.5 -140.5t-148.5 -44.5zM263 518q-36 0 -53 -34.5t-17 -104.5v-16h22q47 0 74.5 23.5t27.5 62.5
q0 32 -14.5 50.5t-39.5 18.5z" />
    <glyph glyph-name="e" unicode="&#xe8;" horiz-adv-x="518" 
d="M282 -13q-122 0 -195.5 72t-73.5 194q0 114 77 193t185 79q90 0 155 -47.5t81 -121.5h-317q6 -104 65 -167t144 -63q39 0 69.5 12.5t48.5 35.5l3 -2q-34 -96 -93.5 -140.5t-148.5 -44.5zM263 518q-36 0 -53 -34.5t-17 -104.5v-16h22q47 0 74.5 23.5t27.5 62.5
q0 32 -14.5 50.5t-39.5 18.5z" />
    <glyph glyph-name="f" unicode="f" horiz-adv-x="362" 
d="M67 204v287h-129v10h129v24q0 50 3 82.5t10 57.5q16 56 61 90t105 34q65 0 107 -39t42 -99q0 -43 -29 -74t-75 -31q-51 0 -81.5 30.5t-30.5 79.5q0 23 8.5 43.5t32.5 48.5q10 10 12.5 14.5t2.5 7.5q0 4 -3 6.5t-9 2.5q-49 0 -92 -43t-43 -100q0 -61 38.5 -98t106.5 -37
h222v-10h-187v-287q0 -129 10 -160t40 -40v-4h-291v4q24 9 32 40t8 160z" />
    <glyph glyph-name="g" unicode="g" horiz-adv-x="614" 
d="M527 340q0 -80 -72.5 -132.5t-176.5 -52.5q-26 0 -52.5 4t-51.5 12q-29 -14 -43 -27.5t-14 -27.5q0 -13 9.5 -19t29.5 -6q14 0 34 3t61 12l96 20q119 25 186 -8.5t67 -117.5q0 -100 -102.5 -168.5t-236.5 -68.5q-108 0 -170.5 23t-62.5 63q0 23 33 38.5t76 15.5
q-60 8 -94.5 40t-34.5 81q0 48 43 88t116 62q-64 22 -101 66t-37 100q0 80 72.5 132.5t176.5 52.5q48 0 97 -15t84 -41q26 48 58.5 75.5t62.5 27.5q33 0 51 -19t18 -52q0 -29 -19 -49.5t-48 -20.5q-12 0 -26 5t-38 21q-24 15 -33.5 17t-16.5 -4l-2.5 -2.5l-1.5 -1.5
q31 -24 47 -56t16 -70zM227 326q23 -84 44.5 -123t45.5 -39q18 0 27 14.5t9 42.5q0 23 -6 56t-18 77q-23 84 -44.5 123t-45.5 39q-18 0 -27 -14.5t-9 -42.5q0 -23 6 -56t18 -77zM147 -98q-11 -9 -16.5 -20.5t-5.5 -25.5q0 -39 39.5 -61t106.5 -22q86 0 131.5 24t45.5 70
q0 38 -27.5 54.5t-75.5 7.5l-105 -21q-22 -5 -45.5 -6.5t-47.5 0.5z" />
    <glyph glyph-name="g" unicode="&#x123;" horiz-adv-x="614" 
d="M527 340q0 -80 -72.5 -132.5t-176.5 -52.5q-26 0 -52.5 4t-51.5 12q-29 -14 -43 -27.5t-14 -27.5q0 -13 9.5 -19t29.5 -6q14 0 34 3t61 12l96 20q119 25 186 -8.5t67 -117.5q0 -100 -102.5 -168.5t-236.5 -68.5q-108 0 -170.5 23t-62.5 63q0 23 33 38.5t76 15.5
q-60 8 -94.5 40t-34.5 81q0 48 43 88t116 62q-64 22 -101 66t-37 100q0 80 72.5 132.5t176.5 52.5q48 0 97 -15t84 -41q26 48 58.5 75.5t62.5 27.5q33 0 51 -19t18 -52q0 -29 -19 -49.5t-48 -20.5q-12 0 -26 5t-38 21q-24 15 -33.5 17t-16.5 -4l-2.5 -2.5l-1.5 -1.5
q31 -24 47 -56t16 -70zM227 326q23 -84 44.5 -123t45.5 -39q18 0 27 14.5t9 42.5q0 23 -6 56t-18 77q-23 84 -44.5 123t-45.5 39q-18 0 -27 -14.5t-9 -42.5q0 -23 6 -56t18 -77zM147 -98q-11 -9 -16.5 -20.5t-5.5 -25.5q0 -39 39.5 -61t106.5 -22q86 0 131.5 24t45.5 70
q0 38 -27.5 54.5t-75.5 7.5l-105 -21q-22 -5 -45.5 -6.5t-47.5 0.5z" />
    <glyph glyph-name="g" unicode="&#x121;" horiz-adv-x="614" 
d="M527 340q0 -80 -72.5 -132.5t-176.5 -52.5q-26 0 -52.5 4t-51.5 12q-29 -14 -43 -27.5t-14 -27.5q0 -13 9.5 -19t29.5 -6q14 0 34 3t61 12l96 20q119 25 186 -8.5t67 -117.5q0 -100 -102.5 -168.5t-236.5 -68.5q-108 0 -170.5 23t-62.5 63q0 23 33 38.5t76 15.5
q-60 8 -94.5 40t-34.5 81q0 48 43 88t116 62q-64 22 -101 66t-37 100q0 80 72.5 132.5t176.5 52.5q48 0 97 -15t84 -41q26 48 58.5 75.5t62.5 27.5q33 0 51 -19t18 -52q0 -29 -19 -49.5t-48 -20.5q-12 0 -26 5t-38 21q-24 15 -33.5 17t-16.5 -4l-2.5 -2.5l-1.5 -1.5
q31 -24 47 -56t16 -70zM227 326q23 -84 44.5 -123t45.5 -39q18 0 27 14.5t9 42.5q0 23 -6 56t-18 77q-23 84 -44.5 123t-45.5 39q-18 0 -27 -14.5t-9 -42.5q0 -23 6 -56t18 -77zM147 -98q-11 -9 -16.5 -20.5t-5.5 -25.5q0 -39 39.5 -61t106.5 -22q86 0 131.5 24t45.5 70
q0 38 -27.5 54.5t-75.5 7.5l-105 -21q-22 -5 -45.5 -6.5t-47.5 0.5z" />
    <glyph glyph-name="g" unicode="&#x11f;" horiz-adv-x="614" 
d="M527 340q0 -80 -72.5 -132.5t-176.5 -52.5q-26 0 -52.5 4t-51.5 12q-29 -14 -43 -27.5t-14 -27.5q0 -13 9.5 -19t29.5 -6q14 0 34 3t61 12l96 20q119 25 186 -8.5t67 -117.5q0 -100 -102.5 -168.5t-236.5 -68.5q-108 0 -170.5 23t-62.5 63q0 23 33 38.5t76 15.5
q-60 8 -94.5 40t-34.5 81q0 48 43 88t116 62q-64 22 -101 66t-37 100q0 80 72.5 132.5t176.5 52.5q48 0 97 -15t84 -41q26 48 58.5 75.5t62.5 27.5q33 0 51 -19t18 -52q0 -29 -19 -49.5t-48 -20.5q-12 0 -26 5t-38 21q-24 15 -33.5 17t-16.5 -4l-2.5 -2.5l-1.5 -1.5
q31 -24 47 -56t16 -70zM227 326q23 -84 44.5 -123t45.5 -39q18 0 27 14.5t9 42.5q0 23 -6 56t-18 77q-23 84 -44.5 123t-45.5 39q-18 0 -27 -14.5t-9 -42.5q0 -23 6 -56t18 -77zM147 -98q-11 -9 -16.5 -20.5t-5.5 -25.5q0 -39 39.5 -61t106.5 -22q86 0 131.5 24t45.5 70
q0 38 -27.5 54.5t-75.5 7.5l-105 -21q-22 -5 -45.5 -6.5t-47.5 0.5z" />
    <glyph glyph-name="g" unicode="&#x11d;" horiz-adv-x="614" 
d="M527 340q0 -80 -72.5 -132.5t-176.5 -52.5q-26 0 -52.5 4t-51.5 12q-29 -14 -43 -27.5t-14 -27.5q0 -13 9.5 -19t29.5 -6q14 0 34 3t61 12l96 20q119 25 186 -8.5t67 -117.5q0 -100 -102.5 -168.5t-236.5 -68.5q-108 0 -170.5 23t-62.5 63q0 23 33 38.5t76 15.5
q-60 8 -94.5 40t-34.5 81q0 48 43 88t116 62q-64 22 -101 66t-37 100q0 80 72.5 132.5t176.5 52.5q48 0 97 -15t84 -41q26 48 58.5 75.5t62.5 27.5q33 0 51 -19t18 -52q0 -29 -19 -49.5t-48 -20.5q-12 0 -26 5t-38 21q-24 15 -33.5 17t-16.5 -4l-2.5 -2.5l-1.5 -1.5
q31 -24 47 -56t16 -70zM227 326q23 -84 44.5 -123t45.5 -39q18 0 27 14.5t9 42.5q0 23 -6 56t-18 77q-23 84 -44.5 123t-45.5 39q-18 0 -27 -14.5t-9 -42.5q0 -23 6 -56t18 -77zM147 -98q-11 -9 -16.5 -20.5t-5.5 -25.5q0 -39 39.5 -61t106.5 -22q86 0 131.5 24t45.5 70
q0 38 -27.5 54.5t-75.5 7.5l-105 -21q-22 -5 -45.5 -6.5t-47.5 0.5z" />
    <glyph glyph-name="h" unicode="h" horiz-adv-x="611" 
d="M295 4v-4h-281v4q24 9 32 40t8 160v299q0 104 -7 127t-33 38v4q63 18 124 50.5t117 78.5v-415q26 67 71.5 103t101.5 36q69 0 101 -49t31 -153v-119q0 -129 8 -160t32 -40v-4h-281v4q24 9 32 40t8 160v27q0 104 -13 133t-49 29q-11 0 -22.5 -2.5t-19.5 -7.5v-179
q0 -129 8 -160t32 -40z" />
    <glyph glyph-name="h" unicode="&#x127;" horiz-adv-x="611" 
d="M295 4v-4h-281v4q24 9 32 40t8 160v299q0 104 -7 127t-33 38v4q63 18 124 50.5t117 78.5v-415q26 67 71.5 103t101.5 36q69 0 101 -49t31 -153v-119q0 -129 8 -160t32 -40v-4h-281v4q24 9 32 40t8 160v27q0 104 -13 133t-49 29q-11 0 -22.5 -2.5t-19.5 -7.5v-179
q0 -129 8 -160t32 -40z" />
    <glyph glyph-name="h" unicode="&#x125;" horiz-adv-x="611" 
d="M295 4v-4h-281v4q24 9 32 40t8 160v299q0 104 -7 127t-33 38v4q63 18 124 50.5t117 78.5v-415q26 67 71.5 103t101.5 36q69 0 101 -49t31 -153v-119q0 -129 8 -160t32 -40v-4h-281v4q24 9 32 40t8 160v27q0 104 -13 133t-49 29q-11 0 -22.5 -2.5t-19.5 -7.5v-179
q0 -129 8 -160t32 -40z" />
    <glyph glyph-name="i" unicode="i" horiz-adv-x="313" 
d="M299 4v-4h-281v4q24 9 32 40t8 160v37q0 104 -7 127t-33 38v4q63 18 124 50.5t117 78.5v-335q0 -129 8 -160t32 -40zM154 532q-53 0 -90.5 38t-37.5 90q0 53 37.5 91t90.5 38t91 -38t38 -91t-38 -90.5t-91 -37.5z" />
    <glyph glyph-name="i" unicode="&#x1ecb;" horiz-adv-x="313" 
d="M299 4v-4h-281v4q24 9 32 40t8 160v37q0 104 -7 127t-33 38v4q63 18 124 50.5t117 78.5v-335q0 -129 8 -160t32 -40zM154 532q-53 0 -90.5 38t-37.5 90q0 53 37.5 91t90.5 38t91 -38t38 -91t-38 -90.5t-91 -37.5z" />
    <glyph glyph-name="i" unicode="&#x131;" horiz-adv-x="313" 
d="M299 4v-4h-281v4q24 9 32 40t8 160v37q0 104 -7 127t-33 38v4q63 18 124 50.5t117 78.5v-335q0 -129 8 -160t32 -40zM154 532q-53 0 -90.5 38t-37.5 90q0 53 37.5 91t90.5 38t91 -38t38 -91t-38 -90.5t-91 -37.5z" />
    <glyph glyph-name="i" unicode="&#x12f;" horiz-adv-x="313" 
d="M299 4v-4h-281v4q24 9 32 40t8 160v37q0 104 -7 127t-33 38v4q63 18 124 50.5t117 78.5v-335q0 -129 8 -160t32 -40zM154 532q-53 0 -90.5 38t-37.5 90q0 53 37.5 91t90.5 38t91 -38t38 -91t-38 -90.5t-91 -37.5z" />
    <glyph glyph-name="i" unicode="&#x12d;" horiz-adv-x="313" 
d="M299 4v-4h-281v4q24 9 32 40t8 160v37q0 104 -7 127t-33 38v4q63 18 124 50.5t117 78.5v-335q0 -129 8 -160t32 -40zM154 532q-53 0 -90.5 38t-37.5 90q0 53 37.5 91t90.5 38t91 -38t38 -91t-38 -90.5t-91 -37.5z" />
    <glyph glyph-name="i" unicode="&#x12b;" horiz-adv-x="313" 
d="M299 4v-4h-281v4q24 9 32 40t8 160v37q0 104 -7 127t-33 38v4q63 18 124 50.5t117 78.5v-335q0 -129 8 -160t32 -40zM154 532q-53 0 -90.5 38t-37.5 90q0 53 37.5 91t90.5 38t91 -38t38 -91t-38 -90.5t-91 -37.5z" />
    <glyph glyph-name="i" unicode="&#x129;" horiz-adv-x="313" 
d="M299 4v-4h-281v4q24 9 32 40t8 160v37q0 104 -7 127t-33 38v4q63 18 124 50.5t117 78.5v-335q0 -129 8 -160t32 -40zM154 532q-53 0 -90.5 38t-37.5 90q0 53 37.5 91t90.5 38t91 -38t38 -91t-38 -90.5t-91 -37.5z" />
    <glyph glyph-name="i" unicode="&#xef;" horiz-adv-x="313" 
d="M299 4v-4h-281v4q24 9 32 40t8 160v37q0 104 -7 127t-33 38v4q63 18 124 50.5t117 78.5v-335q0 -129 8 -160t32 -40zM154 532q-53 0 -90.5 38t-37.5 90q0 53 37.5 91t90.5 38t91 -38t38 -91t-38 -90.5t-91 -37.5z" />
    <glyph glyph-name="i" unicode="&#xee;" horiz-adv-x="313" 
d="M299 4v-4h-281v4q24 9 32 40t8 160v37q0 104 -7 127t-33 38v4q63 18 124 50.5t117 78.5v-335q0 -129 8 -160t32 -40zM154 532q-53 0 -90.5 38t-37.5 90q0 53 37.5 91t90.5 38t91 -38t38 -91t-38 -90.5t-91 -37.5z" />
    <glyph glyph-name="i" unicode="&#xed;" horiz-adv-x="313" 
d="M299 4v-4h-281v4q24 9 32 40t8 160v37q0 104 -7 127t-33 38v4q63 18 124 50.5t117 78.5v-335q0 -129 8 -160t32 -40zM154 532q-53 0 -90.5 38t-37.5 90q0 53 37.5 91t90.5 38t91 -38t38 -91t-38 -90.5t-91 -37.5z" />
    <glyph glyph-name="i" unicode="&#xec;" horiz-adv-x="313" 
d="M299 4v-4h-281v4q24 9 32 40t8 160v37q0 104 -7 127t-33 38v4q63 18 124 50.5t117 78.5v-335q0 -129 8 -160t32 -40zM154 532q-53 0 -90.5 38t-37.5 90q0 53 37.5 91t90.5 38t91 -38t38 -91t-38 -90.5t-91 -37.5z" />
    <glyph glyph-name="j" unicode="j" horiz-adv-x="297" 
d="M250 539v-542q0 -102 -55 -168t-141 -66q-66 0 -109 37.5t-43 95.5q0 40 29.5 69t75.5 29q47 0 74.5 -28t27.5 -74q0 -24 -7.5 -44t-27.5 -45q-8 -10 -10 -14t-2 -7q0 -4 3 -6.5t9 -2.5q47 0 82 32t35 81q0 60 -38 97.5t-104 37.5v220q0 104 -7 127t-33 38v4
q63 18 124 50.5t117 78.5zM145 532q-53 0 -90.5 38t-37.5 90q0 53 37.5 91t90.5 38t91 -38t38 -91t-38 -90.5t-91 -37.5z" />
    <glyph glyph-name="j" unicode="&#x237;" horiz-adv-x="297" 
d="M250 539v-542q0 -102 -55 -168t-141 -66q-66 0 -109 37.5t-43 95.5q0 40 29.5 69t75.5 29q47 0 74.5 -28t27.5 -74q0 -24 -7.5 -44t-27.5 -45q-8 -10 -10 -14t-2 -7q0 -4 3 -6.5t9 -2.5q47 0 82 32t35 81q0 60 -38 97.5t-104 37.5v220q0 104 -7 127t-33 38v4
q63 18 124 50.5t117 78.5zM145 532q-53 0 -90.5 38t-37.5 90q0 53 37.5 91t90.5 38t91 -38t38 -91t-38 -90.5t-91 -37.5z" />
    <glyph glyph-name="j" unicode="&#x135;" horiz-adv-x="297" 
d="M250 539v-542q0 -102 -55 -168t-141 -66q-66 0 -109 37.5t-43 95.5q0 40 29.5 69t75.5 29q47 0 74.5 -28t27.5 -74q0 -24 -7.5 -44t-27.5 -45q-8 -10 -10 -14t-2 -7q0 -4 3 -6.5t9 -2.5q47 0 82 32t35 81q0 60 -38 97.5t-104 37.5v220q0 104 -7 127t-33 38v4
q63 18 124 50.5t117 78.5zM145 532q-53 0 -90.5 38t-37.5 90q0 53 37.5 91t90.5 38t91 -38t38 -91t-38 -90.5t-91 -37.5z" />
    <glyph glyph-name="k" unicode="k" horiz-adv-x="626" 
d="M295 4v-4h-281v4q24 9 32 40t8 160v299q0 104 -7 127t-33 38v4q63 18 124 50.5t117 78.5v-597q0 -129 8 -160t32 -40zM424 367l219 -367h-226l-160 269q78 18 124 52t46 74q0 38 -43.5 66.5t-107.5 35.5v4h377v-4q-43 -8 -115 -49t-114 -81z" />
    <glyph glyph-name="k" unicode="&#x137;" horiz-adv-x="626" 
d="M295 4v-4h-281v4q24 9 32 40t8 160v299q0 104 -7 127t-33 38v4q63 18 124 50.5t117 78.5v-597q0 -129 8 -160t32 -40zM424 367l219 -367h-226l-160 269q78 18 124 52t46 74q0 38 -43.5 66.5t-107.5 35.5v4h377v-4q-43 -8 -115 -49t-114 -81z" />
    <glyph glyph-name="l" unicode="l" horiz-adv-x="309" 
d="M295 4v-4h-281v4q24 9 32 40t8 160v299q0 104 -7 127t-33 38v4q63 18 124 50.5t117 78.5v-597q0 -129 8 -160t32 -40z" />
    <glyph glyph-name="l" unicode="&#x142;" horiz-adv-x="309" 
d="M295 4v-4h-281v4q24 9 32 40t8 160v299q0 104 -7 127t-33 38v4q63 18 124 50.5t117 78.5v-597q0 -129 8 -160t32 -40z" />
    <glyph glyph-name="l" unicode="&#x140;" horiz-adv-x="309" 
d="M295 4v-4h-281v4q24 9 32 40t8 160v299q0 104 -7 127t-33 38v4q63 18 124 50.5t117 78.5v-597q0 -129 8 -160t32 -40z" />
    <glyph glyph-name="l" unicode="&#x13e;" horiz-adv-x="309" 
d="M295 4v-4h-281v4q24 9 32 40t8 160v299q0 104 -7 127t-33 38v4q63 18 124 50.5t117 78.5v-597q0 -129 8 -160t32 -40z" />
    <glyph glyph-name="l" unicode="&#x13c;" horiz-adv-x="309" 
d="M295 4v-4h-281v4q24 9 32 40t8 160v299q0 104 -7 127t-33 38v4q63 18 124 50.5t117 78.5v-597q0 -129 8 -160t32 -40z" />
    <glyph glyph-name="l" unicode="&#x13a;" horiz-adv-x="309" 
d="M295 4v-4h-281v4q24 9 32 40t8 160v299q0 104 -7 127t-33 38v4q63 18 124 50.5t117 78.5v-597q0 -129 8 -160t32 -40z" />
    <glyph glyph-name="m" unicode="m" horiz-adv-x="919" 
d="M298 4v-4h-281v4q24 9 32 40t8 160v37q0 104 -7 127t-33 38v4q63 18 124 50.5t117 78.5v-153q26 67 71.5 103t101.5 36q59 0 90 -34.5t39 -107.5q27 68 73.5 105t102.5 37q69 0 101 -49t31 -153v-119q0 -129 8 -160t32 -40v-4h-281v4q24 9 32 40t8 160v27q0 104 -13 133
t-49 29q-12 0 -25 -3t-20 -9q1 -13 2 -27.5t1 -30.5v-119q0 -129 8 -160t32 -40v-4h-281v4q24 9 32 40t8 160v27q0 104 -13 133t-49 29q-11 0 -22.5 -2.5t-19.5 -7.5v-179q0 -129 8 -160t32 -40z" />
    <glyph glyph-name="n" unicode="n" horiz-adv-x="614" 
d="M298 4v-4h-281v4q24 9 32 40t8 160v37q0 104 -7 127t-33 38v4q63 18 124 50.5t117 78.5v-153q26 67 71.5 103t101.5 36q69 0 101 -49t31 -153v-119q0 -129 8 -160t32 -40v-4h-281v4q24 9 32 40t8 160v27q0 104 -13 133t-49 29q-11 0 -22.5 -2.5t-19.5 -7.5v-179
q0 -129 8 -160t32 -40z" />
    <glyph glyph-name="n" unicode="&#x14b;" horiz-adv-x="614" 
d="M298 4v-4h-281v4q24 9 32 40t8 160v37q0 104 -7 127t-33 38v4q63 18 124 50.5t117 78.5v-153q26 67 71.5 103t101.5 36q69 0 101 -49t31 -153v-119q0 -129 8 -160t32 -40v-4h-281v4q24 9 32 40t8 160v27q0 104 -13 133t-49 29q-11 0 -22.5 -2.5t-19.5 -7.5v-179
q0 -129 8 -160t32 -40z" />
    <glyph glyph-name="n" unicode="&#x148;" horiz-adv-x="614" 
d="M298 4v-4h-281v4q24 9 32 40t8 160v37q0 104 -7 127t-33 38v4q63 18 124 50.5t117 78.5v-153q26 67 71.5 103t101.5 36q69 0 101 -49t31 -153v-119q0 -129 8 -160t32 -40v-4h-281v4q24 9 32 40t8 160v27q0 104 -13 133t-49 29q-11 0 -22.5 -2.5t-19.5 -7.5v-179
q0 -129 8 -160t32 -40z" />
    <glyph glyph-name="n" unicode="&#x146;" horiz-adv-x="614" 
d="M298 4v-4h-281v4q24 9 32 40t8 160v37q0 104 -7 127t-33 38v4q63 18 124 50.5t117 78.5v-153q26 67 71.5 103t101.5 36q69 0 101 -49t31 -153v-119q0 -129 8 -160t32 -40v-4h-281v4q24 9 32 40t8 160v27q0 104 -13 133t-49 29q-11 0 -22.5 -2.5t-19.5 -7.5v-179
q0 -129 8 -160t32 -40z" />
    <glyph glyph-name="n" unicode="&#x144;" horiz-adv-x="614" 
d="M298 4v-4h-281v4q24 9 32 40t8 160v37q0 104 -7 127t-33 38v4q63 18 124 50.5t117 78.5v-153q26 67 71.5 103t101.5 36q69 0 101 -49t31 -153v-119q0 -129 8 -160t32 -40v-4h-281v4q24 9 32 40t8 160v27q0 104 -13 133t-49 29q-11 0 -22.5 -2.5t-19.5 -7.5v-179
q0 -129 8 -160t32 -40z" />
    <glyph glyph-name="n" unicode="&#xf1;" horiz-adv-x="614" 
d="M298 4v-4h-281v4q24 9 32 40t8 160v37q0 104 -7 127t-33 38v4q63 18 124 50.5t117 78.5v-153q26 67 71.5 103t101.5 36q69 0 101 -49t31 -153v-119q0 -129 8 -160t32 -40v-4h-281v4q24 9 32 40t8 160v27q0 104 -13 133t-49 29q-11 0 -22.5 -2.5t-19.5 -7.5v-179
q0 -129 8 -160t32 -40z" />
    <glyph glyph-name="o" unicode="o" horiz-adv-x="620" 
d="M310 525q126 0 211.5 -74.5t85.5 -194.5t-85.5 -194.5t-211.5 -74.5t-211.5 74.5t-85.5 194.5t85.5 194.5t211.5 74.5zM274 518q-30 0 -45 -26t-15 -78q0 -31 5 -73t15 -98q26 -143 51.5 -196t60.5 -53q30 0 45 26t15 78q0 31 -5 73t-15 98q-26 143 -51.5 196t-60.5 53z
" />
    <glyph glyph-name="o" unicode="&#x1ecd;" horiz-adv-x="620" 
d="M310 525q126 0 211.5 -74.5t85.5 -194.5t-85.5 -194.5t-211.5 -74.5t-211.5 74.5t-85.5 194.5t85.5 194.5t211.5 74.5zM274 518q-30 0 -45 -26t-15 -78q0 -31 5 -73t15 -98q26 -143 51.5 -196t60.5 -53q30 0 45 26t15 78q0 31 -5 73t-15 98q-26 143 -51.5 196t-60.5 53z
" />
    <glyph glyph-name="o" unicode="&#x153;" horiz-adv-x="620" 
d="M310 525q126 0 211.5 -74.5t85.5 -194.5t-85.5 -194.5t-211.5 -74.5t-211.5 74.5t-85.5 194.5t85.5 194.5t211.5 74.5zM274 518q-30 0 -45 -26t-15 -78q0 -31 5 -73t15 -98q26 -143 51.5 -196t60.5 -53q30 0 45 26t15 78q0 31 -5 73t-15 98q-26 143 -51.5 196t-60.5 53z
" />
    <glyph glyph-name="o" unicode="&#x151;" horiz-adv-x="620" 
d="M310 525q126 0 211.5 -74.5t85.5 -194.5t-85.5 -194.5t-211.5 -74.5t-211.5 74.5t-85.5 194.5t85.5 194.5t211.5 74.5zM274 518q-30 0 -45 -26t-15 -78q0 -31 5 -73t15 -98q26 -143 51.5 -196t60.5 -53q30 0 45 26t15 78q0 31 -5 73t-15 98q-26 143 -51.5 196t-60.5 53z
" />
    <glyph glyph-name="o" unicode="&#x14f;" horiz-adv-x="620" 
d="M310 525q126 0 211.5 -74.5t85.5 -194.5t-85.5 -194.5t-211.5 -74.5t-211.5 74.5t-85.5 194.5t85.5 194.5t211.5 74.5zM274 518q-30 0 -45 -26t-15 -78q0 -31 5 -73t15 -98q26 -143 51.5 -196t60.5 -53q30 0 45 26t15 78q0 31 -5 73t-15 98q-26 143 -51.5 196t-60.5 53z
" />
    <glyph glyph-name="o" unicode="&#x14d;" horiz-adv-x="620" 
d="M310 525q126 0 211.5 -74.5t85.5 -194.5t-85.5 -194.5t-211.5 -74.5t-211.5 74.5t-85.5 194.5t85.5 194.5t211.5 74.5zM274 518q-30 0 -45 -26t-15 -78q0 -31 5 -73t15 -98q26 -143 51.5 -196t60.5 -53q30 0 45 26t15 78q0 31 -5 73t-15 98q-26 143 -51.5 196t-60.5 53z
" />
    <glyph glyph-name="o" unicode="&#xf8;" horiz-adv-x="620" 
d="M310 525q126 0 211.5 -74.5t85.5 -194.5t-85.5 -194.5t-211.5 -74.5t-211.5 74.5t-85.5 194.5t85.5 194.5t211.5 74.5zM274 518q-30 0 -45 -26t-15 -78q0 -31 5 -73t15 -98q26 -143 51.5 -196t60.5 -53q30 0 45 26t15 78q0 31 -5 73t-15 98q-26 143 -51.5 196t-60.5 53z
" />
    <glyph glyph-name="o" unicode="&#xf6;" horiz-adv-x="620" 
d="M310 525q126 0 211.5 -74.5t85.5 -194.5t-85.5 -194.5t-211.5 -74.5t-211.5 74.5t-85.5 194.5t85.5 194.5t211.5 74.5zM274 518q-30 0 -45 -26t-15 -78q0 -31 5 -73t15 -98q26 -143 51.5 -196t60.5 -53q30 0 45 26t15 78q0 31 -5 73t-15 98q-26 143 -51.5 196t-60.5 53z
" />
    <glyph glyph-name="o" unicode="&#xf5;" horiz-adv-x="620" 
d="M310 525q126 0 211.5 -74.5t85.5 -194.5t-85.5 -194.5t-211.5 -74.5t-211.5 74.5t-85.5 194.5t85.5 194.5t211.5 74.5zM274 518q-30 0 -45 -26t-15 -78q0 -31 5 -73t15 -98q26 -143 51.5 -196t60.5 -53q30 0 45 26t15 78q0 31 -5 73t-15 98q-26 143 -51.5 196t-60.5 53z
" />
    <glyph glyph-name="o" unicode="&#xf4;" horiz-adv-x="620" 
d="M310 525q126 0 211.5 -74.5t85.5 -194.5t-85.5 -194.5t-211.5 -74.5t-211.5 74.5t-85.5 194.5t85.5 194.5t211.5 74.5zM274 518q-30 0 -45 -26t-15 -78q0 -31 5 -73t15 -98q26 -143 51.5 -196t60.5 -53q30 0 45 26t15 78q0 31 -5 73t-15 98q-26 143 -51.5 196t-60.5 53z
" />
    <glyph glyph-name="o" unicode="&#xf3;" horiz-adv-x="620" 
d="M310 525q126 0 211.5 -74.5t85.5 -194.5t-85.5 -194.5t-211.5 -74.5t-211.5 74.5t-85.5 194.5t85.5 194.5t211.5 74.5zM274 518q-30 0 -45 -26t-15 -78q0 -31 5 -73t15 -98q26 -143 51.5 -196t60.5 -53q30 0 45 26t15 78q0 31 -5 73t-15 98q-26 143 -51.5 196t-60.5 53z
" />
    <glyph glyph-name="o" unicode="&#xf2;" horiz-adv-x="620" 
d="M310 525q126 0 211.5 -74.5t85.5 -194.5t-85.5 -194.5t-211.5 -74.5t-211.5 74.5t-85.5 194.5t85.5 194.5t211.5 74.5zM274 518q-30 0 -45 -26t-15 -78q0 -31 5 -73t15 -98q26 -143 51.5 -196t60.5 -53q30 0 45 26t15 78q0 31 -5 73t-15 98q-26 143 -51.5 196t-60.5 53z
" />
    <glyph glyph-name="p" unicode="p" horiz-adv-x="607" 
d="M250 -7v-19q0 -129 10 -160t40 -40v-4h-291v4q24 9 32 40t8 160v267q0 104 -7 127t-33 38v4q63 18 124 50.5t117 78.5v-151q23 65 64 101t94 36q79 0 132 -66.5t53 -164.5q0 -64 -19 -118t-56 -96q-39 -44 -93 -68.5t-111 -24.5q-16 0 -34.5 1.5t-29.5 4.5zM392 162
q0 96 -31 160.5t-83 64.5q-8 0 -15 -1t-13 -3v-259q0 -64 19.5 -97.5t56.5 -33.5q30 0 48 46t18 123z" />
    <glyph glyph-name="p" unicode="&#xfe;" horiz-adv-x="607" 
d="M250 -7v-19q0 -129 10 -160t40 -40v-4h-291v4q24 9 32 40t8 160v267q0 104 -7 127t-33 38v4q63 18 124 50.5t117 78.5v-151q23 65 64 101t94 36q79 0 132 -66.5t53 -164.5q0 -64 -19 -118t-56 -96q-39 -44 -93 -68.5t-111 -24.5q-16 0 -34.5 1.5t-29.5 4.5zM392 162
q0 96 -31 160.5t-83 64.5q-8 0 -15 -1t-13 -3v-259q0 -64 19.5 -97.5t56.5 -33.5q30 0 48 46t18 123z" />
    <glyph glyph-name="q" unicode="q" horiz-adv-x="605" 
d="M558 536v-562q0 -129 8 -160t32 -40v-4h-291v4q30 9 40 40t10 160v150q-23 -65 -64 -101t-94 -36q-81 0 -133 64.5t-52 166.5q0 63 18.5 117t54.5 95q39 45 92 70t109 25q41 0 76.5 -14.5t70.5 -42.5zM357 129v259q0 63 -19 97t-52 34t-52 -45t-19 -124q0 -96 31 -160.5
t83 -64.5q8 0 15 1t13 3z" />
    <glyph glyph-name="r" unicode="r" horiz-adv-x="457" 
d="M298 4v-4h-281v4q24 9 32 40t8 160v37q0 104 -7 127t-33 38v4q63 18 124 50.5t117 78.5v-165q24 78 55 114.5t71 36.5q39 0 60 -27t21 -76q0 -43 -22 -72t-57 -29q-13 0 -27.5 7.5t-40.5 29.5q-17 16 -24.5 20.5t-13.5 4.5t-11 -4t-11 -15v-160q0 -129 8 -160t32 -40z
" />
    <glyph glyph-name="r" unicode="&#x159;" horiz-adv-x="457" 
d="M298 4v-4h-281v4q24 9 32 40t8 160v37q0 104 -7 127t-33 38v4q63 18 124 50.5t117 78.5v-165q24 78 55 114.5t71 36.5q39 0 60 -27t21 -76q0 -43 -22 -72t-57 -29q-13 0 -27.5 7.5t-40.5 29.5q-17 16 -24.5 20.5t-13.5 4.5t-11 -4t-11 -15v-160q0 -129 8 -160t32 -40z
" />
    <glyph glyph-name="r" unicode="&#x157;" horiz-adv-x="457" 
d="M298 4v-4h-281v4q24 9 32 40t8 160v37q0 104 -7 127t-33 38v4q63 18 124 50.5t117 78.5v-165q24 78 55 114.5t71 36.5q39 0 60 -27t21 -76q0 -43 -22 -72t-57 -29q-13 0 -27.5 7.5t-40.5 29.5q-17 16 -24.5 20.5t-13.5 4.5t-11 -4t-11 -15v-160q0 -129 8 -160t32 -40z
" />
    <glyph glyph-name="r" unicode="&#x155;" horiz-adv-x="457" 
d="M298 4v-4h-281v4q24 9 32 40t8 160v37q0 104 -7 127t-33 38v4q63 18 124 50.5t117 78.5v-165q24 78 55 114.5t71 36.5q39 0 60 -27t21 -76q0 -43 -22 -72t-57 -29q-13 0 -27.5 7.5t-40.5 29.5q-17 16 -24.5 20.5t-13.5 4.5t-11 -4t-11 -15v-160q0 -129 8 -160t32 -40z
" />
    <glyph glyph-name="s" unicode="s" horiz-adv-x="499" 
d="M115 77q32 -45 64.5 -64.5t73.5 -19.5q39 0 66.5 19t27.5 49q0 32 -27.5 52t-91.5 31l-18 3q-88 14 -141.5 70.5t-53.5 129.5q0 77 68 127.5t158 50.5q15 0 31.5 -3t45.5 -11q20 -6 29.5 -8t17.5 -2q18 0 26 11.5t11 39.5h3l43 -242h-5q-37 61 -53 86t-29 42
q-32 45 -59.5 63t-60.5 18q-40 0 -65 -18t-25 -48q0 -34 30 -57t89 -33l18 -3q96 -16 148.5 -63t52.5 -115q0 -85 -69.5 -140t-167.5 -55q-27 0 -49.5 3t-51.5 12q-18 6 -27 7.5t-18 1.5q-16 0 -23.5 -11.5t-10.5 -39.5h-3l-43 262h4q36 -67 53 -96t32 -49z" />
    <glyph glyph-name="s" unicode="&#x219;" horiz-adv-x="499" 
d="M115 77q32 -45 64.5 -64.5t73.5 -19.5q39 0 66.5 19t27.5 49q0 32 -27.5 52t-91.5 31l-18 3q-88 14 -141.5 70.5t-53.5 129.5q0 77 68 127.5t158 50.5q15 0 31.5 -3t45.5 -11q20 -6 29.5 -8t17.5 -2q18 0 26 11.5t11 39.5h3l43 -242h-5q-37 61 -53 86t-29 42
q-32 45 -59.5 63t-60.5 18q-40 0 -65 -18t-25 -48q0 -34 30 -57t89 -33l18 -3q96 -16 148.5 -63t52.5 -115q0 -85 -69.5 -140t-167.5 -55q-27 0 -49.5 3t-51.5 12q-18 6 -27 7.5t-18 1.5q-16 0 -23.5 -11.5t-10.5 -39.5h-3l-43 262h4q36 -67 53 -96t32 -49z" />
    <glyph glyph-name="s" unicode="&#x161;" horiz-adv-x="499" 
d="M115 77q32 -45 64.5 -64.5t73.5 -19.5q39 0 66.5 19t27.5 49q0 32 -27.5 52t-91.5 31l-18 3q-88 14 -141.5 70.5t-53.5 129.5q0 77 68 127.5t158 50.5q15 0 31.5 -3t45.5 -11q20 -6 29.5 -8t17.5 -2q18 0 26 11.5t11 39.5h3l43 -242h-5q-37 61 -53 86t-29 42
q-32 45 -59.5 63t-60.5 18q-40 0 -65 -18t-25 -48q0 -34 30 -57t89 -33l18 -3q96 -16 148.5 -63t52.5 -115q0 -85 -69.5 -140t-167.5 -55q-27 0 -49.5 3t-51.5 12q-18 6 -27 7.5t-18 1.5q-16 0 -23.5 -11.5t-10.5 -39.5h-3l-43 262h4q36 -67 53 -96t32 -49z" />
    <glyph glyph-name="s" unicode="&#x15f;" horiz-adv-x="499" 
d="M115 77q32 -45 64.5 -64.5t73.5 -19.5q39 0 66.5 19t27.5 49q0 32 -27.5 52t-91.5 31l-18 3q-88 14 -141.5 70.5t-53.5 129.5q0 77 68 127.5t158 50.5q15 0 31.5 -3t45.5 -11q20 -6 29.5 -8t17.5 -2q18 0 26 11.5t11 39.5h3l43 -242h-5q-37 61 -53 86t-29 42
q-32 45 -59.5 63t-60.5 18q-40 0 -65 -18t-25 -48q0 -34 30 -57t89 -33l18 -3q96 -16 148.5 -63t52.5 -115q0 -85 -69.5 -140t-167.5 -55q-27 0 -49.5 3t-51.5 12q-18 6 -27 7.5t-18 1.5q-16 0 -23.5 -11.5t-10.5 -39.5h-3l-43 262h4q36 -67 53 -96t32 -49z" />
    <glyph glyph-name="s" unicode="&#x15d;" horiz-adv-x="499" 
d="M115 77q32 -45 64.5 -64.5t73.5 -19.5q39 0 66.5 19t27.5 49q0 32 -27.5 52t-91.5 31l-18 3q-88 14 -141.5 70.5t-53.5 129.5q0 77 68 127.5t158 50.5q15 0 31.5 -3t45.5 -11q20 -6 29.5 -8t17.5 -2q18 0 26 11.5t11 39.5h3l43 -242h-5q-37 61 -53 86t-29 42
q-32 45 -59.5 63t-60.5 18q-40 0 -65 -18t-25 -48q0 -34 30 -57t89 -33l18 -3q96 -16 148.5 -63t52.5 -115q0 -85 -69.5 -140t-167.5 -55q-27 0 -49.5 3t-51.5 12q-18 6 -27 7.5t-18 1.5q-16 0 -23.5 -11.5t-10.5 -39.5h-3l-43 262h4q36 -67 53 -96t32 -49z" />
    <glyph glyph-name="s" unicode="&#x15b;" horiz-adv-x="499" 
d="M115 77q32 -45 64.5 -64.5t73.5 -19.5q39 0 66.5 19t27.5 49q0 32 -27.5 52t-91.5 31l-18 3q-88 14 -141.5 70.5t-53.5 129.5q0 77 68 127.5t158 50.5q15 0 31.5 -3t45.5 -11q20 -6 29.5 -8t17.5 -2q18 0 26 11.5t11 39.5h3l43 -242h-5q-37 61 -53 86t-29 42
q-32 45 -59.5 63t-60.5 18q-40 0 -65 -18t-25 -48q0 -34 30 -57t89 -33l18 -3q96 -16 148.5 -63t52.5 -115q0 -85 -69.5 -140t-167.5 -55q-27 0 -49.5 3t-51.5 12q-18 6 -27 7.5t-18 1.5q-16 0 -23.5 -11.5t-10.5 -39.5h-3l-43 262h4q36 -67 53 -96t32 -49z" />
    <glyph glyph-name="s" unicode="&#xdf;" horiz-adv-x="499" 
d="M115 77q32 -45 64.5 -64.5t73.5 -19.5q39 0 66.5 19t27.5 49q0 32 -27.5 52t-91.5 31l-18 3q-88 14 -141.5 70.5t-53.5 129.5q0 77 68 127.5t158 50.5q15 0 31.5 -3t45.5 -11q20 -6 29.5 -8t17.5 -2q18 0 26 11.5t11 39.5h3l43 -242h-5q-37 61 -53 86t-29 42
q-32 45 -59.5 63t-60.5 18q-40 0 -65 -18t-25 -48q0 -34 30 -57t89 -33l18 -3q96 -16 148.5 -63t52.5 -115q0 -85 -69.5 -140t-167.5 -55q-27 0 -49.5 3t-51.5 12q-18 6 -27 7.5t-18 1.5q-16 0 -23.5 -11.5t-10.5 -39.5h-3l-43 262h4q36 -67 53 -96t32 -49z" />
    <glyph glyph-name="t" unicode="t" horiz-adv-x="368" 
d="M58 491h-109v10h109l197 160h4v-160h184v-10h-184v-317q0 -55 17 -81t53 -26q20 0 35.5 8.5t27.5 25.5l2 -1q-25 -58 -69.5 -85.5t-111.5 -27.5q-71 0 -113 41.5t-42 114.5v348z" />
    <glyph glyph-name="t" unicode="&#x21b;" horiz-adv-x="368" 
d="M58 491h-109v10h109l197 160h4v-160h184v-10h-184v-317q0 -55 17 -81t53 -26q20 0 35.5 8.5t27.5 25.5l2 -1q-25 -58 -69.5 -85.5t-111.5 -27.5q-71 0 -113 41.5t-42 114.5v348z" />
    <glyph glyph-name="t" unicode="&#x167;" horiz-adv-x="368" 
d="M58 491h-109v10h109l197 160h4v-160h184v-10h-184v-317q0 -55 17 -81t53 -26q20 0 35.5 8.5t27.5 25.5l2 -1q-25 -58 -69.5 -85.5t-111.5 -27.5q-71 0 -113 41.5t-42 114.5v348z" />
    <glyph glyph-name="t" unicode="&#x165;" horiz-adv-x="368" 
d="M58 491h-109v10h109l197 160h4v-160h184v-10h-184v-317q0 -55 17 -81t53 -26q20 0 35.5 8.5t27.5 25.5l2 -1q-25 -58 -69.5 -85.5t-111.5 -27.5q-71 0 -113 41.5t-42 114.5v348z" />
    <glyph glyph-name="t" unicode="&#x163;" horiz-adv-x="368" 
d="M58 491h-109v10h109l197 160h4v-160h184v-10h-184v-317q0 -55 17 -81t53 -26q20 0 35.5 8.5t27.5 25.5l2 -1q-25 -58 -69.5 -85.5t-111.5 -27.5q-71 0 -113 41.5t-42 114.5v348z" />
    <glyph glyph-name="u" unicode="u" horiz-adv-x="619" 
d="M54 189v129q0 72 -9.5 96.5t-37.5 33.5v4l248 71v-242q0 -104 13 -133t49 -29q11 0 22.5 2.5t19.5 7.5v189q0 72 -9.5 96.5t-37.5 33.5v4l248 71v-349q0 -72 9.5 -96.5t37.5 -33.5v-4q-65 -5 -119 -17t-129 -41v144q-26 -67 -71.5 -103t-101.5 -36q-69 0 -100.5 48.5
t-31.5 153.5z" />
    <glyph glyph-name="u" unicode="&#x1ee5;" horiz-adv-x="619" 
d="M54 189v129q0 72 -9.5 96.5t-37.5 33.5v4l248 71v-242q0 -104 13 -133t49 -29q11 0 22.5 2.5t19.5 7.5v189q0 72 -9.5 96.5t-37.5 33.5v4l248 71v-349q0 -72 9.5 -96.5t37.5 -33.5v-4q-65 -5 -119 -17t-129 -41v144q-26 -67 -71.5 -103t-101.5 -36q-69 0 -100.5 48.5
t-31.5 153.5z" />
    <glyph glyph-name="u" unicode="&#x173;" horiz-adv-x="619" 
d="M54 189v129q0 72 -9.5 96.5t-37.5 33.5v4l248 71v-242q0 -104 13 -133t49 -29q11 0 22.5 2.5t19.5 7.5v189q0 72 -9.5 96.5t-37.5 33.5v4l248 71v-349q0 -72 9.5 -96.5t37.5 -33.5v-4q-65 -5 -119 -17t-129 -41v144q-26 -67 -71.5 -103t-101.5 -36q-69 0 -100.5 48.5
t-31.5 153.5z" />
    <glyph glyph-name="u" unicode="&#x171;" horiz-adv-x="619" 
d="M54 189v129q0 72 -9.5 96.5t-37.5 33.5v4l248 71v-242q0 -104 13 -133t49 -29q11 0 22.5 2.5t19.5 7.5v189q0 72 -9.5 96.5t-37.5 33.5v4l248 71v-349q0 -72 9.5 -96.5t37.5 -33.5v-4q-65 -5 -119 -17t-129 -41v144q-26 -67 -71.5 -103t-101.5 -36q-69 0 -100.5 48.5
t-31.5 153.5z" />
    <glyph glyph-name="u" unicode="&#x16f;" horiz-adv-x="619" 
d="M54 189v129q0 72 -9.5 96.5t-37.5 33.5v4l248 71v-242q0 -104 13 -133t49 -29q11 0 22.5 2.5t19.5 7.5v189q0 72 -9.5 96.5t-37.5 33.5v4l248 71v-349q0 -72 9.5 -96.5t37.5 -33.5v-4q-65 -5 -119 -17t-129 -41v144q-26 -67 -71.5 -103t-101.5 -36q-69 0 -100.5 48.5
t-31.5 153.5z" />
    <glyph glyph-name="u" unicode="&#x16d;" horiz-adv-x="619" 
d="M54 189v129q0 72 -9.5 96.5t-37.5 33.5v4l248 71v-242q0 -104 13 -133t49 -29q11 0 22.5 2.5t19.5 7.5v189q0 72 -9.5 96.5t-37.5 33.5v4l248 71v-349q0 -72 9.5 -96.5t37.5 -33.5v-4q-65 -5 -119 -17t-129 -41v144q-26 -67 -71.5 -103t-101.5 -36q-69 0 -100.5 48.5
t-31.5 153.5z" />
    <glyph glyph-name="u" unicode="&#x16b;" horiz-adv-x="619" 
d="M54 189v129q0 72 -9.5 96.5t-37.5 33.5v4l248 71v-242q0 -104 13 -133t49 -29q11 0 22.5 2.5t19.5 7.5v189q0 72 -9.5 96.5t-37.5 33.5v4l248 71v-349q0 -72 9.5 -96.5t37.5 -33.5v-4q-65 -5 -119 -17t-129 -41v144q-26 -67 -71.5 -103t-101.5 -36q-69 0 -100.5 48.5
t-31.5 153.5z" />
    <glyph glyph-name="u" unicode="&#x169;" horiz-adv-x="619" 
d="M54 189v129q0 72 -9.5 96.5t-37.5 33.5v4l248 71v-242q0 -104 13 -133t49 -29q11 0 22.5 2.5t19.5 7.5v189q0 72 -9.5 96.5t-37.5 33.5v4l248 71v-349q0 -72 9.5 -96.5t37.5 -33.5v-4q-65 -5 -119 -17t-129 -41v144q-26 -67 -71.5 -103t-101.5 -36q-69 0 -100.5 48.5
t-31.5 153.5z" />
    <glyph glyph-name="u" unicode="&#xfc;" horiz-adv-x="619" 
d="M54 189v129q0 72 -9.5 96.5t-37.5 33.5v4l248 71v-242q0 -104 13 -133t49 -29q11 0 22.5 2.5t19.5 7.5v189q0 72 -9.5 96.5t-37.5 33.5v4l248 71v-349q0 -72 9.5 -96.5t37.5 -33.5v-4q-65 -5 -119 -17t-129 -41v144q-26 -67 -71.5 -103t-101.5 -36q-69 0 -100.5 48.5
t-31.5 153.5z" />
    <glyph glyph-name="u" unicode="&#xfb;" horiz-adv-x="619" 
d="M54 189v129q0 72 -9.5 96.5t-37.5 33.5v4l248 71v-242q0 -104 13 -133t49 -29q11 0 22.5 2.5t19.5 7.5v189q0 72 -9.5 96.5t-37.5 33.5v4l248 71v-349q0 -72 9.5 -96.5t37.5 -33.5v-4q-65 -5 -119 -17t-129 -41v144q-26 -67 -71.5 -103t-101.5 -36q-69 0 -100.5 48.5
t-31.5 153.5z" />
    <glyph glyph-name="u" unicode="&#xfa;" horiz-adv-x="619" 
d="M54 189v129q0 72 -9.5 96.5t-37.5 33.5v4l248 71v-242q0 -104 13 -133t49 -29q11 0 22.5 2.5t19.5 7.5v189q0 72 -9.5 96.5t-37.5 33.5v4l248 71v-349q0 -72 9.5 -96.5t37.5 -33.5v-4q-65 -5 -119 -17t-129 -41v144q-26 -67 -71.5 -103t-101.5 -36q-69 0 -100.5 48.5
t-31.5 153.5z" />
    <glyph glyph-name="u" unicode="&#xf9;" horiz-adv-x="619" 
d="M54 189v129q0 72 -9.5 96.5t-37.5 33.5v4l248 71v-242q0 -104 13 -133t49 -29q11 0 22.5 2.5t19.5 7.5v189q0 72 -9.5 96.5t-37.5 33.5v4l248 71v-349q0 -72 9.5 -96.5t37.5 -33.5v-4q-65 -5 -119 -17t-129 -41v144q-26 -67 -71.5 -103t-101.5 -36q-69 0 -100.5 48.5
t-31.5 153.5z" />
    <glyph glyph-name="v" unicode="v" horiz-adv-x="553" 
d="M333 501h265v-4q-38 -7 -76.5 -48.5t-69.5 -113.5l-145 -335h-83l-184 427q-15 35 -29 50t-36 20v4h342v-4q-35 -4 -48 -24.5t0 -50.5l107 -245l35 83q48 110 27 170.5t-105 66.5v4z" />
    <glyph glyph-name="w" unicode="w" horiz-adv-x="893" 
d="M-25 497v4h682v-4q-35 -4 -48 -24.5t0 -50.5l107 -244l35 82q48 110 27 170.5t-105 66.5v4h265v-4q-46 -12 -82.5 -55.5t-70.5 -120.5l-138 -321h-83l-128 297l-129 -297h-83l-184 427q-15 35 -29 50t-36 20zM303 496q-34 0 -42.5 -17t8.5 -57l107 -245l56 130l-52 120
q-19 43 -35 56t-42 13z" />
    <glyph glyph-name="w" unicode="&#x1e85;" horiz-adv-x="893" 
d="M-25 497v4h682v-4q-35 -4 -48 -24.5t0 -50.5l107 -244l35 82q48 110 27 170.5t-105 66.5v4h265v-4q-46 -12 -82.5 -55.5t-70.5 -120.5l-138 -321h-83l-128 297l-129 -297h-83l-184 427q-15 35 -29 50t-36 20zM303 496q-34 0 -42.5 -17t8.5 -57l107 -245l56 130l-52 120
q-19 43 -35 56t-42 13z" />
    <glyph glyph-name="w" unicode="&#x1e83;" horiz-adv-x="893" 
d="M-25 497v4h682v-4q-35 -4 -48 -24.5t0 -50.5l107 -244l35 82q48 110 27 170.5t-105 66.5v4h265v-4q-46 -12 -82.5 -55.5t-70.5 -120.5l-138 -321h-83l-128 297l-129 -297h-83l-184 427q-15 35 -29 50t-36 20zM303 496q-34 0 -42.5 -17t8.5 -57l107 -245l56 130l-52 120
q-19 43 -35 56t-42 13z" />
    <glyph glyph-name="w" unicode="&#x1e81;" horiz-adv-x="893" 
d="M-25 497v4h682v-4q-35 -4 -48 -24.5t0 -50.5l107 -244l35 82q48 110 27 170.5t-105 66.5v4h265v-4q-46 -12 -82.5 -55.5t-70.5 -120.5l-138 -321h-83l-128 297l-129 -297h-83l-184 427q-15 35 -29 50t-36 20zM303 496q-34 0 -42.5 -17t8.5 -57l107 -245l56 130l-52 120
q-19 43 -35 56t-42 13z" />
    <glyph glyph-name="w" unicode="&#x175;" horiz-adv-x="893" 
d="M-25 497v4h682v-4q-35 -4 -48 -24.5t0 -50.5l107 -244l35 82q48 110 27 170.5t-105 66.5v4h265v-4q-46 -12 -82.5 -55.5t-70.5 -120.5l-138 -321h-83l-128 297l-129 -297h-83l-184 427q-15 35 -29 50t-36 20zM303 496q-34 0 -42.5 -17t8.5 -57l107 -245l56 130l-52 120
q-19 43 -35 56t-42 13z" />
    <glyph glyph-name="x" unicode="x" horiz-adv-x="569" 
d="M-21 497v4h613v-4q-60 -10 -115 -49.5t-102 -104.5l-24 -35l164 -234q28 -39 40.5 -50t34.5 -20v-4h-616v4q61 11 116.5 51t103.5 108l22 31l-164 233q-30 42 -43.5 54t-29.5 16zM302 497q-39 0 -47 -21t16 -54l75 -107l11 15q21 28 28.5 55t0.5 51q-7 27 -30.5 44
t-53.5 17zM220 187l-11 -16q-20 -29 -27 -55t-1 -49q7 -27 31.5 -45t50.5 -18q42 0 50.5 19.5t-17.5 55.5z" />
    <glyph glyph-name="y" unicode="y" horiz-adv-x="554" 
d="M-25 497v4h342v-4q-35 -4 -48 -24.5t0 -50.5l107 -245l35 83q47 110 26.5 170.5t-104.5 66.5v4h265v-4q-34 -11 -53.5 -26.5t-38.5 -39.5q-14 -19 -28.5 -44.5t-27.5 -56.5l-156 -361q-20 -46 -40.5 -81t-43.5 -60q-29 -33 -62 -49t-82 -16q-58 0 -101 34t-43 87
q0 39 28 64.5t71 25.5q42 0 64.5 -24.5t29.5 -86.5q1 -4 2 -18t3 -21q3 -11 9.5 -16t18.5 -5q30 0 55.5 26.5t31.5 68.5q4 29 -2.5 63.5t-23.5 73.5l-169 392q-15 35 -29 50t-36 20z" />
    <glyph glyph-name="y" unicode="&#x1ef3;" horiz-adv-x="554" 
d="M-25 497v4h342v-4q-35 -4 -48 -24.5t0 -50.5l107 -245l35 83q47 110 26.5 170.5t-104.5 66.5v4h265v-4q-34 -11 -53.5 -26.5t-38.5 -39.5q-14 -19 -28.5 -44.5t-27.5 -56.5l-156 -361q-20 -46 -40.5 -81t-43.5 -60q-29 -33 -62 -49t-82 -16q-58 0 -101 34t-43 87
q0 39 28 64.5t71 25.5q42 0 64.5 -24.5t29.5 -86.5q1 -4 2 -18t3 -21q3 -11 9.5 -16t18.5 -5q30 0 55.5 26.5t31.5 68.5q4 29 -2.5 63.5t-23.5 73.5l-169 392q-15 35 -29 50t-36 20z" />
    <glyph glyph-name="y" unicode="&#x233;" horiz-adv-x="554" 
d="M-25 497v4h342v-4q-35 -4 -48 -24.5t0 -50.5l107 -245l35 83q47 110 26.5 170.5t-104.5 66.5v4h265v-4q-34 -11 -53.5 -26.5t-38.5 -39.5q-14 -19 -28.5 -44.5t-27.5 -56.5l-156 -361q-20 -46 -40.5 -81t-43.5 -60q-29 -33 -62 -49t-82 -16q-58 0 -101 34t-43 87
q0 39 28 64.5t71 25.5q42 0 64.5 -24.5t29.5 -86.5q1 -4 2 -18t3 -21q3 -11 9.5 -16t18.5 -5q30 0 55.5 26.5t31.5 68.5q4 29 -2.5 63.5t-23.5 73.5l-169 392q-15 35 -29 50t-36 20z" />
    <glyph glyph-name="y" unicode="&#x177;" horiz-adv-x="554" 
d="M-25 497v4h342v-4q-35 -4 -48 -24.5t0 -50.5l107 -245l35 83q47 110 26.5 170.5t-104.5 66.5v4h265v-4q-34 -11 -53.5 -26.5t-38.5 -39.5q-14 -19 -28.5 -44.5t-27.5 -56.5l-156 -361q-20 -46 -40.5 -81t-43.5 -60q-29 -33 -62 -49t-82 -16q-58 0 -101 34t-43 87
q0 39 28 64.5t71 25.5q42 0 64.5 -24.5t29.5 -86.5q1 -4 2 -18t3 -21q3 -11 9.5 -16t18.5 -5q30 0 55.5 26.5t31.5 68.5q4 29 -2.5 63.5t-23.5 73.5l-169 392q-15 35 -29 50t-36 20z" />
    <glyph glyph-name="y" unicode="&#xff;" horiz-adv-x="554" 
d="M-25 497v4h342v-4q-35 -4 -48 -24.5t0 -50.5l107 -245l35 83q47 110 26.5 170.5t-104.5 66.5v4h265v-4q-34 -11 -53.5 -26.5t-38.5 -39.5q-14 -19 -28.5 -44.5t-27.5 -56.5l-156 -361q-20 -46 -40.5 -81t-43.5 -60q-29 -33 -62 -49t-82 -16q-58 0 -101 34t-43 87
q0 39 28 64.5t71 25.5q42 0 64.5 -24.5t29.5 -86.5q1 -4 2 -18t3 -21q3 -11 9.5 -16t18.5 -5q30 0 55.5 26.5t31.5 68.5q4 29 -2.5 63.5t-23.5 73.5l-169 392q-15 35 -29 50t-36 20z" />
    <glyph glyph-name="y" unicode="&#xfd;" horiz-adv-x="554" 
d="M-25 497v4h342v-4q-35 -4 -48 -24.5t0 -50.5l107 -245l35 83q47 110 26.5 170.5t-104.5 66.5v4h265v-4q-34 -11 -53.5 -26.5t-38.5 -39.5q-14 -19 -28.5 -44.5t-27.5 -56.5l-156 -361q-20 -46 -40.5 -81t-43.5 -60q-29 -33 -62 -49t-82 -16q-58 0 -101 34t-43 87
q0 39 28 64.5t71 25.5q42 0 64.5 -24.5t29.5 -86.5q1 -4 2 -18t3 -21q3 -11 9.5 -16t18.5 -5q30 0 55.5 26.5t31.5 68.5q4 29 -2.5 63.5t-23.5 73.5l-169 392q-15 35 -29 50t-36 20z" />
    <glyph glyph-name="z" unicode="z" horiz-adv-x="546" 
d="M458 0h-447l295 496q-106 -13 -172 -72t-115 -185h-5l60 299h1q31 -18 86 -27.5t144 -9.5h235l-293 -496q58 12 105.5 39t85.5 70q26 29 49.5 67t63.5 124h5z" />
    <glyph glyph-name="z" unicode="&#x17e;" horiz-adv-x="546" 
d="M458 0h-447l295 496q-106 -13 -172 -72t-115 -185h-5l60 299h1q31 -18 86 -27.5t144 -9.5h235l-293 -496q58 12 105.5 39t85.5 70q26 29 49.5 67t63.5 124h5z" />
    <glyph glyph-name="z" unicode="&#x17c;" horiz-adv-x="546" 
d="M458 0h-447l295 496q-106 -13 -172 -72t-115 -185h-5l60 299h1q31 -18 86 -27.5t144 -9.5h235l-293 -496q58 12 105.5 39t85.5 70q26 29 49.5 67t63.5 124h5z" />
    <glyph glyph-name="z" unicode="&#x17a;" horiz-adv-x="546" 
d="M458 0h-447l295 496q-106 -13 -172 -72t-115 -185h-5l60 299h1q31 -18 86 -27.5t144 -9.5h235l-293 -496q58 12 105.5 39t85.5 70q26 29 49.5 67t63.5 124h5z" />
    <glyph glyph-name="bullet" unicode="&#x2022;" horiz-adv-x="345" 
d="M299 395q0 -52 -37 -89.5t-90 -37.5q-52 0 -89 37.5t-37 89.5t37 89t89 37t89.5 -37t37.5 -89z" />
    <glyph glyph-name="quoteright" unicode="&#x2019;" horiz-adv-x="252" 
d="M17 674q0 46 34 77.5t84 31.5q49 0 80.5 -36.5t31.5 -95.5q0 -61 -55 -133t-147 -133l-4 7q53 38 83.5 74.5t30.5 63.5q0 15 -10 25.5t-44 21.5q-51 18 -67.5 40t-16.5 57z" />
    <glyph glyph-name="glyph64" 
d="M268 491v-287q0 -129 10 -160t40 -40v-4h-291v4q24 9 32 40t8 160v287h-129v10h129v24q0 50 3 82.5t10 57.5q16 56 61 90t105 34q46 0 82 -20.5t53 -56.5q15 29 42.5 46.5t60.5 17.5q48 0 82 -34t34 -82q0 -47 -34 -81t-82 -34q-31 0 -57.5 15.5t-42.5 42.5
q-13 -27 -37.5 -42t-55.5 -15q-51 0 -81.5 30.5t-30.5 79.5q0 23 8.5 43.5t32.5 48.5q10 10 12.5 14.5t2.5 7.5q0 4 -3 6.5t-9 2.5q-49 0 -92 -43t-43 -100q0 -61 38.5 -98t106.5 -37h356v-297q0 -129 8 -160t32 -40v-4h-281v4q24 9 32 40t8 160v37q0 104 -7 127t-33 38v4
q65 10 121.5 30.5t104.5 50.5h-306z" />
    <glyph glyph-name="glyph65" 
d="M268 491v-287q0 -129 10 -160t40 -40v-4h-291v4q24 9 32 40t8 160v287h-129v10h129v24q0 50 3 82.5t10 57.5q16 56 61 90t105 34q56 0 96 -29t50 -78q47 15 98.5 46t98.5 73v-597q0 -129 8 -160t32 -40v-4h-281v4q24 9 32 40t8 160v287h-120zM88 636q0 -61 38.5 -98
t106.5 -37h155v111q-11 -31 -37 -48.5t-60 -17.5q-51 0 -81.5 30.5t-30.5 79.5q0 23 8.5 43.5t32.5 48.5q10 10 12.5 14.5t2.5 7.5q0 4 -3 6.5t-9 2.5q-49 0 -92 -43t-43 -100z" />
    <glyph glyph-name="periodcentered" unicode="&#xb7;" horiz-adv-x="278" 
d="M261 258q0 -53 -36 -88.5t-89 -35.5q-49 0 -84 36t-35 88q0 49 35 84.5t84 35.5q53 0 89 -35t36 -85z" />
    <glyph glyph-name="glyph67" horiz-adv-x="313" 
d="M299 4v-4h-281v4q24 9 32 40t8 160v37q0 104 -7 127t-33 38v4q63 18 124 50.5t117 78.5v-335q0 -129 8 -160t32 -40z" />
    <glyph glyph-name="uni00A0" unicode="&#xa0;" horiz-adv-x="172" 
 />
    <glyph glyph-name="uni00AD" unicode="&#xad;" horiz-adv-x="368" 
d="M331 202h-294v111h294v-111z" />
    <glyph glyph-name="glyph70" horiz-adv-x="297" 
d="M250 539v-542q0 -102 -55 -168t-141 -66q-66 0 -109 37.5t-43 95.5q0 40 29.5 69t75.5 29q47 0 74.5 -28t27.5 -74q0 -24 -7.5 -44t-27.5 -45q-8 -10 -10 -14t-2 -7q0 -4 3 -6.5t9 -2.5q47 0 82 32t35 81q0 60 -38 97.5t-104 37.5v220q0 104 -7 127t-33 38v4
q63 18 124 50.5t117 78.5z" />
    <glyph glyph-name="glyph73" horiz-adv-x="0" 
d="M0 532q-53 0 -90.5 38t-37.5 90q0 53 37.5 91t90.5 38t91 -38t38 -91t-38 -90.5t-91 -37.5z" />
    <glyph glyph-name="glyph74" horiz-adv-x="0" 
d="M212 417h-443v10h443v-10z" />
    <glyph glyph-name="glyph75" horiz-adv-x="0" 
d="M244 543l-487 -382v13l487 382v-13z" />
    </font>
</defs>
</svg>
